<svg width="32" height="32" viewBox="0 0 32 32" fill="none" xmlns="http://www.w3.org/2000/svg">
<path d="M25.2668 19.8229C24.6117 19.1407 23.8215 18.776 22.984 18.776C22.1533 18.776 21.3564 19.134 20.6742 19.8161L18.54 21.9436C18.3644 21.849 18.1888 21.7612 18.02 21.6734C17.7768 21.5518 17.5472 21.437 17.3513 21.3155C15.3522 20.0457 13.5354 18.3911 11.7929 16.2501C10.9487 15.183 10.3814 14.2847 9.96941 13.373C10.5232 12.8664 11.0365 12.3396 11.5363 11.8331C11.7254 11.644 11.9145 11.4481 12.1036 11.259C13.5219 9.84072 13.5219 8.00368 12.1036 6.58538L10.2598 4.74159C10.0505 4.53222 9.83434 4.3161 9.63172 4.09997C9.22649 3.68124 8.801 3.24899 8.362 2.84376C7.70688 2.1954 6.92344 1.85095 6.09947 1.85095C5.27551 1.85095 4.47856 2.1954 3.80318 2.84376C3.79642 2.85052 3.79642 2.85052 3.78967 2.85727L1.49337 5.17383C0.628881 6.03832 0.135852 7.09192 0.027791 8.31436C-0.134301 10.2865 0.446528 12.1235 0.89228 13.3257C1.9864 16.2771 3.62082 19.0124 6.05895 21.9436C9.01712 25.4758 12.5764 28.2651 16.6422 30.2305C18.1956 30.9667 20.269 31.8379 22.5855 31.9865C22.7274 31.9932 22.876 32 23.011 32C24.5712 32 25.8814 31.4394 26.908 30.325C26.9147 30.3115 26.9283 30.3048 26.935 30.2913C27.2862 29.8658 27.6914 29.4808 28.1169 29.0688C28.4073 28.7919 28.7045 28.5015 28.9949 28.1976C29.6636 27.502 30.0148 26.6915 30.0148 25.8608C30.0148 25.0233 29.6568 24.2196 28.9747 23.5442L25.2668 19.8229ZM27.6847 26.9346C27.6779 26.9346 27.6779 26.9414 27.6847 26.9346C27.4213 27.2183 27.1511 27.4749 26.8607 27.7586C26.4217 28.1773 25.976 28.6163 25.5572 29.1094C24.8751 29.8388 24.0714 30.1832 23.0178 30.1832C22.9165 30.1832 22.8084 30.1832 22.7071 30.1765C20.7012 30.0481 18.8372 29.2647 17.4391 28.5961C13.6165 26.7455 10.2598 24.1183 7.4705 20.7887C5.16745 18.0128 3.62758 15.4464 2.60775 12.6908C1.97964 11.0091 1.75001 9.69889 1.85132 8.46294C1.91886 7.67274 2.22278 7.01762 2.78335 6.45706L5.0864 4.154C5.41734 3.84333 5.76854 3.67448 6.11298 3.67448C6.53847 3.67448 6.88292 3.93113 7.09904 4.14725C7.10579 4.154 7.11255 4.16076 7.1193 4.16751C7.53128 4.55248 7.92301 4.95095 8.33499 5.37645C8.54436 5.59257 8.76048 5.80869 8.9766 6.03157L10.8204 7.87536C11.5363 8.59126 11.5363 9.25314 10.8204 9.96904C10.6245 10.1649 10.4354 10.3608 10.2396 10.5499C9.67224 11.1307 9.13194 11.671 8.54436 12.1978C8.53085 12.2113 8.51734 12.2181 8.51059 12.2316C7.92976 12.8124 8.03782 13.3797 8.15939 13.7647C8.16614 13.7849 8.1729 13.8052 8.17965 13.8255C8.65917 14.9871 9.33455 16.0812 10.3611 17.3847L10.3679 17.3915C12.2319 19.6878 14.1973 21.4775 16.3653 22.8486C16.6422 23.0242 16.9258 23.166 17.196 23.3011C17.4391 23.4226 17.6688 23.5375 17.8646 23.659C17.8916 23.6725 17.9187 23.6928 17.9457 23.7063C18.1753 23.8211 18.3914 23.8752 18.6143 23.8752C19.1749 23.8752 19.5261 23.524 19.6409 23.4091L21.9507 21.0993C22.1803 20.8697 22.545 20.5928 22.9705 20.5928C23.3893 20.5928 23.7337 20.8562 23.9431 21.0858C23.9498 21.0926 23.9498 21.0926 23.9566 21.0993L27.6779 24.8207C28.3736 25.5096 28.3736 26.2187 27.6847 26.9346Z" fill="black"/>
<path d="M17.2703 7.61195C19.0398 7.90911 20.6472 8.74659 21.9305 10.0298C23.2137 11.313 24.0444 12.9204 24.3483 14.6899C24.4226 15.1357 24.8076 15.4464 25.2466 15.4464C25.3006 15.4464 25.3479 15.4396 25.4019 15.4329C25.9017 15.3518 26.2326 14.8791 26.1516 14.3793C25.7869 12.2383 24.7738 10.2865 23.2272 8.73983C21.6806 7.19321 19.7287 6.18014 17.5878 5.81543C17.088 5.73438 16.622 6.06532 16.5342 6.55835C16.4464 7.05138 16.7706 7.5309 17.2703 7.61195Z" fill="black"/>
<path d="M31.9396 14.1159C31.3385 10.5904 29.6771 7.38232 27.1241 4.82937C24.5712 2.27643 21.3631 0.61499 17.8376 0.0139004C17.3446 -0.0738993 16.8786 0.263792 16.7908 0.756821C16.7097 1.2566 17.0407 1.72262 17.5404 1.81042C20.6877 2.34397 23.5581 3.83656 25.8409 6.1126C28.1237 8.39539 29.6095 11.2658 30.1431 14.413C30.2174 14.8588 30.6023 15.1695 31.0413 15.1695C31.0954 15.1695 31.1426 15.1627 31.1967 15.156C31.6897 15.0817 32.0274 14.6089 31.9396 14.1159Z" fill="black"/>
</svg>
