<svg width="30" height="30" viewBox="0 0 30 30" fill="none" xmlns="http://www.w3.org/2000/svg">
<g id="volume_up_24px">
<path id="icon/av/volume_up_24px" fill-rule="evenodd" clip-rule="evenodd" d="M17.5 6.6125V4.0375C22.5125 5.175 26.25 9.65 26.25 15C26.25 20.35 22.5125 24.825 17.5 25.9625V23.3875C21.1125 22.3125 23.75 18.9625 23.75 15C23.75 11.0375 21.1125 7.6875 17.5 6.6125ZM3.75 18.75V11.25H8.75L15 5V25L8.75 18.75H3.75ZM12.5 18.9625V11.0375L9.7875 13.75H6.25V16.25H9.7875L12.5 18.9625ZM20.625 15C20.625 12.7875 19.35 10.8875 17.5 9.9625V20.025C19.35 19.1125 20.625 17.2125 20.625 15Z" fill="#BE52A6"/>
</g>
</svg>
