<svg width="30" height="30" viewBox="0 0 30 30" fill="none" xmlns="http://www.w3.org/2000/svg">
<g id="volume_off_24px">
<path id="icon/av/volume_off_24px" fill-rule="evenodd" clip-rule="evenodd" d="M5.42498 3.66875L3.66248 5.43125L9.11248 10.8813L8.74998 11.2563H3.74998V18.7563H8.74998L15 25.0063V16.7688L20.225 21.9938C19.4125 22.6063 18.5 23.0938 17.5 23.3813V25.9563C19.175 25.5813 20.7125 24.8063 22.0125 23.7688L24.575 26.3312L26.3375 24.5688L5.42498 3.66875ZM12.5 18.9688L9.78748 16.2563H6.24998V13.7563H9.78748L10.8875 12.6563L12.5 14.2688V18.9688ZM23.2375 17.9313C23.5625 17.0188 23.75 16.0313 23.75 15.0063C23.75 11.0438 21.1125 7.69375 17.5 6.61875V4.04375C22.5125 5.18125 26.25 9.65625 26.25 15.0063C26.25 16.7438 25.85 18.3813 25.15 19.8438L23.2375 17.9313ZM15 5.00625L12.65 7.35625L15 9.70625V5.00625ZM17.5 9.96875C19.35 10.8938 20.625 12.7938 20.625 15.0063C20.625 15.1062 20.6125 15.2062 20.6 15.3062L20.6 15.3063L17.5 12.2063V9.96875Z" fill="#BE52A6"/>
</g>
</svg>
