<svg width="83" height="64" viewBox="0 0 83 64" fill="none" xmlns="http://www.w3.org/2000/svg">
<path d="M40.6602 0.820312C40.7148 0.816406 40.8203 0.816406 40.8711 0.8125C40.8633 1.25391 40.832 1.69531 40.8242 2.13672C40.75 2.13281 40.6719 2.13281 40.6016 2.12891C40.582 1.69141 40.7578 1.26172 40.6602 0.820312Z" fill="black"/>
<path d="M40.6133 2.37109C40.7188 2.38281 40.8242 2.39844 40.9297 2.41016C41.0156 3.0625 40.8203 3.76953 41.1602 4.36719C41.2305 4.51953 41.3398 4.65234 41.4492 4.77734C41.4727 4.57422 41.4766 4.36719 41.4766 4.16016C41.3086 4.13281 41.1406 4.06641 41.0938 3.88672C41.3047 3.87891 41.5117 3.90625 41.7188 3.94141C41.7305 4.21875 41.6445 4.54297 41.8633 4.76172C42.0508 4.91797 41.9922 5.16797 42 5.38281C41.9844 5.69141 42.0039 6 41.9922 6.30469C41.7539 6.53516 41.5 6.78906 41.4688 7.14062C41.457 7.83203 41.4414 8.52734 41.543 9.21484C41.6367 10.0195 41.6328 10.8281 41.6562 11.6367C41.7773 12.4492 41.7227 13.2695 41.7461 14.0859C41.8125 14.5078 41.7969 14.9297 41.8281 15.3516C41.8906 15.7383 41.8984 16.1289 41.9023 16.5156C41.6602 17.1172 41.8828 17.7813 41.8984 18.4102C42.0039 19.1328 41.9922 19.8789 42.2188 20.5781C42.3164 20.9062 42.3438 21.2422 42.4062 21.5742C42.4766 22.1562 42.6758 22.7148 42.6836 23.3047C42.8516 25.0195 43.1133 26.7227 43.2852 28.4375C43.3047 28.7969 43.4492 29.1328 43.4922 29.4883C43.7578 29.6641 44.0547 29.8047 44.2617 30.0547C43.9258 29.9844 43.5898 29.8789 43.3164 29.668C42.7656 29.3164 42.2266 28.957 41.7148 28.5547C41.7227 28.5078 41.7383 28.4102 41.7461 28.3594C41.9531 28.4727 42.1445 28.6055 42.3398 28.7344C42.3477 28.3242 42.3633 27.9062 42.2305 27.5117C41.9414 27.5273 41.5977 27.6211 41.4375 27.3164C41.2617 27.5898 40.9258 27.8164 40.9375 28.1719C41.1094 28.6367 41.4336 29.0781 41.9102 29.2695C41.8711 29.3594 41.8359 29.4531 41.8008 29.5469C41.9648 29.5078 42.125 29.4648 42.2891 29.4219C42.8125 29.9688 43.5273 30.2539 44.1484 30.6641C44.4844 30.9297 44.9453 30.9844 45.2109 31.3477C45.1562 31.5586 45.2031 31.7578 45.3008 31.9414C45.4219 32.3477 44.918 32.5078 44.8945 32.8828C44.7656 33.5078 44.7266 34.1563 44.8281 34.7891C44.8945 35.125 44.5742 35.3555 44.5 35.6562C44.5156 35.8789 44.7383 36.0078 44.8633 36.1719C44.8398 35.8359 44.707 35.5117 44.7656 35.1719C45.0859 35.4336 45.0234 35.8867 45.1953 36.2305C45.5469 37.457 46.0039 38.6523 46.3281 39.8906C46.5898 40.5742 46.6445 41.4219 47.2578 41.9102C47.8203 42.1445 48.3125 42.5352 48.918 42.6758C48.9258 42.3398 48.9219 42.0078 48.9219 41.6758C50.1953 41.6836 51.4687 41.6641 52.7422 41.6875C52.8125 42.2539 52.8867 42.8281 53.0273 43.3867C53.332 42.8398 53.6953 42.3008 54.2344 41.9609C55.2539 41.3086 56.5977 41.1094 57.7188 41.625C57.7266 42.918 57.7305 44.2148 57.7148 45.5078C57.0625 45.5078 56.4102 45.4961 55.7578 45.5156C55.0352 45.5703 54.2734 45.9102 53.9258 46.5781C53.6133 47.1719 53.5234 47.8594 53.543 48.5234C53.5469 49.5664 53.5391 50.6094 53.5469 51.6562C53.5312 51.8242 53.6523 51.9609 53.7383 52.1016C54.2969 52.8672 54.9102 53.5937 55.5391 54.3047C55.7852 54.5937 56.0977 54.832 56.3047 55.1523C56.0664 55.0508 55.8711 54.8711 55.6523 54.7305C55.8437 55.0977 56.1602 55.3711 56.3945 55.707C56.4453 55.6602 56.4922 55.6133 56.543 55.5664C56.6133 55.7266 56.6953 55.8828 56.7773 56.0352C57.1641 56.043 57.5508 56.0391 57.9336 56.0781C58.4844 56.1602 59.043 56.1016 59.5938 56.2031C60.0586 56.1914 60.5156 56.3125 60.9844 56.3008C60.832 56.207 60.6758 56.125 60.5273 56.0273C61.0703 56.125 61.6211 56.2305 62.1406 56.418C62.1523 56.4727 62.168 56.582 62.1797 56.6367C61.0781 56.6094 59.9883 56.4141 58.8906 56.3555C58.1445 56.2461 57.3828 56.3477 56.6328 56.2305C55.2539 56.1953 53.8711 56.1992 52.4922 56.2266C52.2461 56.3633 52.0352 56.5703 51.7539 56.6367C50.918 56.7422 50.0937 56.5039 49.2617 56.4531C47.8633 56.2266 46.4258 56.2266 45.0273 56.4453C44.0937 56.5117 43.1602 56.7617 42.2227 56.6133C41.7188 56.5156 41.2773 56.1719 41.1289 55.668C40.2773 55.6602 39.4258 55.582 38.5781 55.6719C38.4648 55.9492 38.3633 56.2656 38.0859 56.418C37.4805 56.8437 36.7187 56.5898 36.043 56.5586C34.4883 56.3164 32.8984 56.1602 31.3281 56.3828C30.4883 56.4453 29.6562 56.6211 28.8125 56.6562C28.4688 56.6875 28.2656 56.3711 28 56.2148C27.1953 56.1758 26.3984 56.2891 25.5977 56.3633C24.9063 56.2461 24.1875 56.2617 23.5117 56.4492C23.4492 56.4336 23.3242 56.3984 23.2617 56.3789C23.3047 56.3203 23.3906 56.2031 23.4297 56.1445C24.4648 55.9961 25.5117 56.0625 26.5508 56.0234C26.6641 55.8164 26.7539 55.5742 26.9805 55.4648C27.1953 55.3359 27.457 55.3633 27.6992 55.3359C27.7773 55.0469 27.8867 54.7656 27.9922 54.4883C28.0586 54.3164 27.9336 54.1562 27.8789 54C27.3633 54.2656 26.7969 54.4609 26.3516 54.8438C26.1133 55.0039 25.8555 55.25 25.543 55.168C25.5156 55.1367 25.4688 55.0742 25.4453 55.043C25.5547 54.8125 25.8242 54.8008 26.0312 54.7188C26.5625 54.5039 27.0742 54.2305 27.5195 53.8633C27.0313 53.832 26.5391 53.8594 26.0508 53.8438C26.0625 54.0391 26.0664 54.2344 26.0664 54.4336C25.8555 54.3906 25.6445 54.3359 25.4297 54.293C25.4687 54.0234 25.6094 53.793 25.7578 53.5703C25.8906 53.5938 26.0234 53.6172 26.1562 53.6445C26.1484 53.4375 26.1445 53.2305 26.1367 53.0234C25.5625 53.5937 25.082 54.25 24.5273 54.8398C24.3125 55.0742 24.1641 55.3633 24.0352 55.6523C23.8672 55.8125 23.6758 55.9453 23.4961 56.0938C23.4492 55.9648 23.3984 55.8398 23.3594 55.707C24.2344 54.832 25.0156 53.8672 25.8477 52.9492C25.9609 52.7891 26.1563 52.6523 26.1445 52.4375C26.1484 50.4375 26.1406 48.4375 26.1484 46.4375C26.1367 45.8711 25.9297 45.2461 25.4102 44.9531C25.1055 44.75 24.7188 44.8086 24.375 44.7969C23.4414 44.8008 22.6758 45.6953 22.6758 46.6016C22.6719 49 22.6719 51.3984 22.6758 53.7969C21.1328 53.8125 19.5859 53.8008 18.043 53.8008C18.043 48.25 18.0391 42.6992 18.0469 37.1445C19.5898 37.1406 21.1328 37.1289 22.6758 37.1484C22.6758 39.0664 22.6641 40.9844 22.6836 42.9023C23.5977 42.0078 24.8359 41.4531 26.1172 41.3867C27.1445 41.3203 28.2383 41.4688 29.1055 42.0625C29.8437 42.5547 30.3398 43.3633 30.5391 44.2188C30.75 44.9883 30.7656 45.7891 30.7773 46.582C31.0117 46.2617 31.2031 45.9062 31.4531 45.5938C31.7539 45.207 32.0508 44.8008 32.1875 44.3242C32.1602 44.0234 31.8594 43.8945 31.6289 43.7656C31.793 43.1562 31.6289 42.5508 31.5273 41.9492C31.6797 41.9492 31.8359 41.9531 31.9922 41.957C32.043 42.5625 31.8672 43.1602 31.9219 43.7617C31.9883 43.6367 32.0508 43.5039 32.1172 43.375C32.3047 43.3477 32.4922 43.3086 32.6797 43.2617C32.6641 42.9453 32.6563 42.6211 32.7695 42.3203C32.6172 42.293 32.4687 42.2539 32.3242 42.1953C32.5898 42.0586 32.8438 41.8828 33.1445 41.832C33.8047 41.7266 34.4805 41.6367 35.1055 41.3984C35.1172 41.3398 35.1367 41.2148 35.1445 41.1523C34.6836 41.2148 34.2148 41.3047 33.7891 41.5039C33.4648 41.6289 33.1055 41.5703 32.7852 41.707C32.5586 41.7578 32.2891 41.9922 32.1016 41.7461C32.3945 41.5664 32.7227 41.4531 33.0625 41.4102C33.418 41.3633 33.7734 41.1914 33.9375 40.8555C34.3906 40.0117 34.793 39.1406 35.1328 38.2461C35.4219 37.4961 35.6484 36.7148 36.0352 36.0078C36.1211 36.3555 36.4219 36.5977 36.4648 36.9688C36.6875 36.4141 36.8477 35.8398 37.0078 35.2695C36.8672 35.4102 36.7266 35.5547 36.5898 35.6992C36.4414 35.6875 36.2891 35.6836 36.1406 35.6914C36.1836 35.4141 36.1211 35.1094 36.2812 34.8594C36.4727 34.5039 36.6523 34.1367 36.8633 33.7891C36.9727 33.6289 36.9141 33.4297 36.9258 33.25C37.0586 33.1523 37.2617 33.1094 37.3047 32.9297C37.3789 32.6758 37.5312 32.3906 37.4062 32.1289C37.3359 31.7852 36.9258 31.8789 36.6797 31.7656C36.5391 31.2891 36.6875 30.8047 36.6914 30.3242C37.1406 30.3359 37.5586 30.1523 37.9922 30.0586C38.5312 29.9375 39.0547 29.7656 39.5938 29.6445C39.4961 29.3555 39.3203 29.082 39.3906 28.7695C39.5586 29 39.6367 29.2891 39.8477 29.4844C40.1797 29.5781 40.5195 29.4258 40.8398 29.3398C40.832 29.0156 40.8516 28.6836 40.7539 28.3672C40.7266 28.3711 40.6641 28.3828 40.6367 28.3828C40.3477 28.6445 40.1953 29.0937 39.7734 29.168C40.0156 28.7969 40.2969 28.4609 40.5234 28.082C40.4258 27.7969 40.2656 27.5391 40.0742 27.3086C40.0664 27.7383 40.1445 28.3203 39.75 28.6016C39.7148 28.2852 39.8125 27.9727 39.8281 27.6562C39.8633 27.293 39.793 26.9219 39.8984 26.5664C40.0352 26.0156 39.9609 25.4453 40.0352 24.8867C40.0781 24.2773 40.043 23.6641 40.0977 23.0508C40.0977 22.918 40.2148 22.8281 40.2852 22.7266C40.2539 23.3867 40.2422 24.043 40.2656 24.7031C40.3984 24.6602 40.5898 24.6055 40.5859 24.4336C40.6016 23.9141 40.5937 23.3906 40.5742 22.8711C40.4219 22.5078 40.0664 22.2656 39.9766 21.8711C40.2539 21.9414 40.3398 22.2383 40.5117 22.4336C40.5391 22 40.5312 21.5664 40.5273 21.1328C40.5391 21.0078 40.4648 20.9062 40.3984 20.8125C40.4531 20.6641 40.5078 20.5156 40.5 20.3555C40.4922 19.4258 40.5117 18.4922 40.4531 17.5625C40.3555 17.0352 40.4688 16.5 40.3633 15.9727C40.3125 16.3906 40.2266 16.8047 40.3438 17.2148C40.2109 17.8477 40.25 18.4922 40.2188 19.1289C40.1914 19.9336 40.0625 20.7344 40.1016 21.5391C40.0586 21.5391 39.9688 21.5391 39.9219 21.5352C39.9219 21.2539 39.9219 20.9687 39.8945 20.6836C39.7383 21.1719 39.4258 21.6992 39.6445 22.2148C39.7227 22.4297 39.9648 22.4531 40.1562 22.5078C39.9023 22.9531 39.9609 23.4805 39.7695 23.9453C39.7109 23.8281 39.6523 23.7109 39.5977 23.5938C39.4883 23.8008 39.375 24.0039 39.3047 24.2227C39.2344 24.4609 39.3594 24.6914 39.4141 24.918C39.5586 24.918 39.7031 24.9219 39.8516 24.9258C39.5977 25.4727 39.2266 25.9688 39.0352 26.5469C39.0352 26.8477 39.1797 27.1289 39.3047 27.3984C39.3555 27.5586 39.5469 27.5664 39.6797 27.6367C39.3672 28.2109 38.9766 28.7422 38.6445 29.3047C38.7344 29.3984 38.8203 29.4922 38.9023 29.5938C38.7148 29.5312 38.5391 29.4414 38.3828 29.3242C38.6211 28.875 38.9961 28.5078 39.2148 28.0508C39.2266 27.6563 39.0664 27.2773 38.9414 26.9141C38.8984 26.9102 38.8164 26.9023 38.7773 26.8984C38.7148 27.1211 38.6445 27.3477 38.6094 27.5781C38.5781 28.0547 38.4063 28.5078 38.3008 28.9688C38.2422 29.2305 38.1211 29.4688 37.9766 29.6914C37.9375 29.3086 38.1211 28.9609 38.1992 28.5938C38.3047 28.1445 38.4414 27.6992 38.5234 27.2461C38.6602 26.5742 38.8789 25.9141 38.875 25.2227C39.0508 24.332 39.082 23.4219 39.1406 22.5156C39.2578 21.7109 39.375 20.9023 39.3906 20.0859C39.457 19.6055 39.5 19.1172 39.457 18.6328C39.3789 17.6602 39.6484 16.707 39.6484 15.7383C39.7539 14.1172 39.9023 12.4922 39.9219 10.8672C40.0156 9.875 39.9531 8.87891 40.0938 7.89062C40.082 7.63672 40.207 7.29687 39.9453 7.13672C39.9492 6.89453 40.0547 6.61719 39.9062 6.40234C39.8125 6.24219 39.625 6.17969 39.4688 6.09766C39.4648 5.8125 39.2578 5.5 39.4492 5.23828C39.6172 4.99609 39.6914 4.70703 39.7344 4.41797C39.9375 4.33203 40.1367 4.23437 40.3242 4.12109C40.4648 3.54688 40.5156 2.95312 40.6133 2.37109ZM40.5742 3.96094C40.6406 3.93359 40.7695 3.88281 40.8359 3.85937C40.8437 3.47656 40.8203 3.09375 40.7266 2.72266C40.5742 3.11719 40.5937 3.54297 40.5742 3.96094ZM40.582 4.39844C40.4961 4.45703 40.4766 4.66797 40.6211 4.66406C40.8203 4.66016 40.7813 4.28125 40.582 4.39844ZM39.7109 4.78516C39.9375 4.9375 40.207 4.95312 40.4453 4.8125C40.4258 4.66406 40.4062 4.51562 40.3867 4.36719C40.1523 4.49219 39.918 4.61719 39.7109 4.78516ZM40.2305 5.16016C39.9375 5.30469 39.5508 5.51953 39.625 5.90625C39.9375 5.83203 40.2969 5.69922 40.3438 5.33203C40.6133 5.25391 40.8867 5.17578 41.1719 5.14844C41.2578 5.29687 41.3477 5.44141 41.4453 5.58594C41.4023 5.33984 41.3164 5.10156 41.1758 4.89453C40.8594 4.97656 40.5352 5.03906 40.2305 5.16016ZM41.6016 5.41016C41.6602 5.41797 41.7773 5.43359 41.8359 5.44141C41.8789 5.26172 41.8906 5.07422 41.875 4.88672C41.7656 5.05078 41.6758 5.22656 41.6016 5.41016ZM40.7969 5.42187C40.5156 5.71094 40.7578 6.09375 40.7461 6.42969C40.7812 6.92187 40.6914 7.41016 40.5547 7.87891C40.4297 7.21484 40.5664 6.53125 40.4336 5.86719C40.3789 5.86719 40.2695 5.87109 40.2188 5.87109C40.3164 6.19531 40.3594 6.53125 40.3125 6.86719C40.1836 7.86328 40.1797 8.87109 40.1758 9.875C40.207 9.86328 40.2656 9.84766 40.2969 9.83594C40.4844 9.21484 40.418 8.5625 40.5234 7.92969C40.6211 8.20703 40.5859 8.50391 40.5859 8.78906C40.5508 8.97266 40.8164 9.09766 40.7344 9.28125C40.5547 9.67969 40.5313 10.1172 40.5352 10.5469C40.7695 10.3203 40.8125 9.99219 40.8477 9.6875C41.082 9.125 40.9258 8.48047 40.6953 7.94141C40.7617 7.94531 40.8984 7.94922 40.9648 7.95312C40.9258 7.40234 41.0508 6.85937 41.082 6.3125C40.8672 6.60937 40.9531 6.98047 40.9023 7.31641C40.8047 7.04297 40.8086 6.75 40.8516 6.46875C40.9102 6.12109 41.2109 5.83203 41.1211 5.46094C41.0117 5.44922 40.9023 5.43359 40.7969 5.42187ZM41.2266 7.49609C41.1836 7.95312 41.125 8.42969 41.2344 8.88281C41.3516 8.42969 41.2617 7.95312 41.2266 7.49609ZM41.2109 8.83984C41.1602 9.39062 41.1484 9.98828 41.4297 10.4805C41.4453 10.293 41.4531 10.1016 41.4258 9.91406C41.3633 9.55469 41.4023 9.16797 41.2109 8.83984ZM40.082 11.4844C40.4063 11.0625 40.4844 10.5156 40.3164 10.0117C40.0664 10.457 40.0156 10.9844 40.082 11.4844ZM40.6016 11.2188C40.6016 11.7344 40.5703 12.25 40.5898 12.7617C40.6914 12.5234 40.8086 12.2773 40.7656 12.0078C40.7812 11.6289 40.5664 11.2031 40.8242 10.8633C40.8594 11.1445 40.8867 11.4414 41.1133 11.6406C41.1016 11.1289 41.1133 10.6094 40.9922 10.1055C40.8398 10.4648 40.5703 10.8086 40.6016 11.2188ZM41.2578 10.6328C41.3438 11.1328 41.3359 11.6406 41.4219 12.1406C41.5234 11.6445 41.4453 11.1367 41.4453 10.6328C41.3984 10.6328 41.3047 10.6328 41.2578 10.6328ZM40.1055 11.8359C40.0273 12.1523 40.0547 12.5078 40.3047 12.7461C40.4219 12.3047 40.4336 11.8438 40.4141 11.3906C40.3047 11.5352 40.1836 11.6758 40.1055 11.8359ZM40.8672 11.668C40.8945 12.1328 40.8828 12.6445 41.1719 13.0391C41.1953 12.6602 41.1484 12.2813 41.0859 11.9102C41.0195 11.8242 40.9453 11.7422 40.8672 11.668ZM40.0391 12.7734C40 13.0273 39.9922 13.2812 39.9805 13.5391C40.0234 13.5312 40.1133 13.5195 40.1562 13.5117C40.2734 13.2578 40.2656 12.9609 40.0391 12.7734ZM40.7617 12.8906C40.6328 12.9062 40.6094 13.1016 40.6875 13.1836C40.8633 13.2734 40.9453 12.9023 40.7617 12.8906ZM41.043 13.125C41 13.6172 40.9102 14.1836 41.2656 14.5898C41.2891 14.0937 41.2812 13.5703 41.043 13.125ZM40.5352 13.418C40.5391 13.9883 40.5 14.5625 40.5273 15.1328C40.9883 14.6758 40.8594 14.0078 40.8281 13.4297C40.7539 13.4258 40.6094 13.4219 40.5352 13.418ZM40.0039 13.9961C39.9688 14.332 39.918 14.668 39.918 15.0078C39.9766 15.0078 40.0977 15.0117 40.1562 15.0117C40.1914 14.6211 40.207 14.2305 40.2227 13.8398C40.168 13.8789 40.0586 13.957 40.0039 13.9961ZM41.1289 14.6914C40.8789 15.4727 41.1992 16.2617 41.5312 16.9609C41.5586 16.5508 41.4375 16.1484 41.4609 15.7344C41.4844 15.3594 41.3555 14.9883 41.1289 14.6914ZM40.5938 15.4258C40.5273 15.6211 40.7578 15.7227 40.8594 15.8516C40.9375 15.543 40.9375 15.2227 40.9141 14.9102C40.7969 15.0742 40.668 15.2344 40.5938 15.4258ZM39.8945 15.2266C39.8477 15.6445 39.8047 16.0664 39.8047 16.4883C39.9219 16.3008 40.0469 16.1094 40.1211 15.8984C40.1875 15.6914 40.1172 15.4766 40.0781 15.2695C40.0312 15.2617 39.9414 15.2383 39.8945 15.2266ZM40.5938 15.8711C40.582 16.6094 40.5625 17.3477 40.6484 18.082C40.668 19.1289 40.6406 20.1719 40.6914 21.2148C40.7031 21.7148 40.6875 22.2227 40.7734 22.7148C40.8828 22.8906 41.0547 23.0156 41.207 23.1523C41.207 22.7578 41.1953 22.3633 41.1758 21.9688C41.0586 21.0859 41.1484 20.1914 41.0312 19.3086C40.8984 18.3086 40.9648 17.2969 40.918 16.293C40.832 16.1367 40.7109 16.0039 40.5938 15.8711ZM39.7227 17.2344C39.7227 17.7148 39.6133 18.1875 39.6602 18.668C39.7969 18.332 39.9609 18.0078 40.0547 17.6602C40.1172 17.2539 40.1094 16.8438 40.0742 16.4375C39.918 16.6836 39.7188 16.9297 39.7227 17.2344ZM41.1367 16.5469C41.125 17.1914 41.0898 17.8437 41.2148 18.4805C41.3242 18.1602 41.4844 17.832 41.4453 17.4844C41.3867 17.1602 41.2695 16.8477 41.1367 16.5469ZM41.5859 18.0703C41.4766 18.3594 41.3164 18.6445 41.2812 18.9531C41.4883 19.5156 41.6836 20.0898 41.9883 20.6094C41.9766 20.1992 41.8242 19.8047 41.8164 19.3945C41.8047 18.9453 41.7383 18.4961 41.5859 18.0703ZM39.7227 19.0664C39.6289 19.6914 39.5938 20.3281 39.5781 20.9609C39.707 20.6523 39.8984 20.3242 39.7891 19.9805C39.8555 19.8906 39.9766 19.8281 39.9922 19.707C40.0859 19.2422 40.0547 18.7578 40.0547 18.2852C39.9141 18.5273 39.7539 18.7773 39.7227 19.0664ZM41.3086 19.457C41.1602 19.9414 41.2539 20.4414 41.2891 20.9297C41.3594 21.1562 41.4492 21.3711 41.5078 21.5977C41.6289 21.4023 41.8477 21.207 41.7891 20.957C41.6641 20.4492 41.457 19.9609 41.3086 19.457ZM41.625 21.9922C41.7812 22.4961 41.8984 23.0352 42.2461 23.4492C42.2969 23.7617 42.3516 24.082 42.332 24.4023C42.1992 24.2734 42.0781 24.1367 41.9492 24C41.8398 24.1484 41.7305 24.293 41.6172 24.4336C41.8789 25.125 42.293 25.7422 42.625 26.3984C42.4727 26.4336 42.3203 26.4609 42.168 26.4922C42.0742 26.6797 42.0156 26.9102 42.1406 27.1016C42.4766 27.7031 42.8008 28.3125 43.1211 28.9219C43.1406 28.4883 43.0078 28.0703 42.9648 27.6367C42.918 27.0391 42.8516 26.4414 42.7695 25.8438C42.6016 24.7266 42.5742 23.5938 42.3594 22.4844C42.2812 22.0547 42.2188 21.6172 42.0391 21.2148C41.8672 21.4531 41.6953 21.707 41.625 21.9922ZM39.2812 23.793C39.4297 23.5156 39.6055 23.2461 39.7227 22.9531C39.668 22.6602 39.5156 22.3945 39.4062 22.1211C39.2773 22.668 39.2656 23.2344 39.2812 23.793ZM41.3867 22.1016C41.3633 22.543 41.3594 23.0117 41.5664 23.418C41.5586 23.6758 41.4414 23.918 41.4766 24.1758C41.625 24.0547 41.7812 23.9375 41.8867 23.7734C41.9453 23.5273 41.8359 23.2891 41.7812 23.0547C41.6914 22.7227 41.6445 22.3516 41.3867 22.1016ZM40.7773 24.3125C40.9687 24.1016 41.2578 23.8945 41.2266 23.5742C41.2383 23.3008 40.9453 23.1914 40.7734 23.0391C40.7266 23.4648 40.7383 23.8906 40.7773 24.3125ZM41.1641 24.2031C41.0391 24.3789 40.8125 24.5195 40.832 24.7617C40.832 25.0273 40.8477 25.2969 40.8789 25.5625C40.9766 25.9023 41.2344 26.1641 41.4727 26.4141C41.5273 25.6758 41.3164 24.9531 41.3594 24.2148C41.3086 24.2148 41.2109 24.207 41.1641 24.2031ZM39.0391 26.0273C39.2773 25.6602 39.3672 25.2031 39.1523 24.8008C39.0312 25.1992 38.9922 25.6133 39.0391 26.0273ZM40.3945 24.9336C40.4727 25.0742 40.5586 25.2109 40.6445 25.3477C40.6523 25.1953 40.6602 25.043 40.6641 24.8906C40.5977 24.9023 40.4609 24.9219 40.3945 24.9336ZM41.5586 24.8984C41.5977 25.4453 41.5977 26.0195 41.8477 26.5195C41.9766 26.3828 42.2383 26.2461 42.1445 26.0234C42.0039 25.625 41.8477 25.2148 41.5586 24.8984ZM40.2383 25.1367C40.1836 25.6797 40.125 26.2305 40.1289 26.7734C40.2383 27.1484 40.4492 27.4844 40.6602 27.8086C40.7852 27.1602 40.7305 26.4922 40.7305 25.832C40.6055 25.5781 40.4063 25.3672 40.2383 25.1367ZM40.9258 26.1094C40.9102 26.6133 40.918 27.1133 40.9414 27.6133C41.1289 27.3906 41.3438 27.1758 41.4727 26.9141C41.5273 26.5547 41.1094 26.3711 40.9258 26.1094ZM42.5742 28.6406C42.6094 28.7891 42.6523 28.9336 42.6992 29.0781C42.8008 29.082 42.9063 29.0859 43.0078 29.0898C42.875 28.9336 42.7344 28.7773 42.5742 28.6406ZM41.0469 28.8477C41.0391 28.9805 41.0312 29.1133 41.0273 29.2461C41.1328 29.2461 41.2422 29.2461 41.3477 29.25C41.2461 29.1172 41.1484 28.9805 41.0469 28.8477ZM38.4883 30.1641C38.0039 30.2891 37.5078 30.3867 37.0586 30.6055C37.0078 30.6758 36.9648 30.7461 36.9258 30.8164C37.2188 30.7383 37.5195 30.668 37.8242 30.6406C38.707 30.5078 39.5508 30.1875 40.4375 30.0977C40.4883 30.1797 40.5391 30.2617 40.5938 30.3438C41.0859 30.1992 41.5898 30.2109 42.0938 30.2148C42.3945 30.3203 42.6484 30.5195 42.9258 30.6758C43.5 31.0117 44.125 31.2461 44.707 31.5664C44.582 31 43.9414 30.8711 43.5273 30.582C42.9844 30.3672 42.4961 30.0391 42.0078 29.7305C41.6523 29.7539 41.25 29.5859 40.9375 29.8164C40.9141 29.7578 40.8633 29.6445 40.8398 29.5859C40.0508 29.7539 39.2773 29.9883 38.4883 30.1641ZM40.7344 30.832C40.9688 30.9727 41.2266 31.0937 41.4102 31.3086C41.6563 31.6016 41.793 31.9727 41.957 32.3164C41.9922 31.9219 41.9766 31.5234 41.9727 31.1289C41.5898 30.9219 41.1836 30.5781 40.7344 30.832ZM37.5664 31.6484C37.7539 31.7344 37.9492 31.8164 38.1406 31.8906C38.2344 31.7344 38.3281 31.5742 38.4141 31.4102C38.1211 31.4453 37.8398 31.5391 37.5664 31.6484ZM42.1523 31.4141C42.0508 31.625 42.082 31.8633 42.0742 32.0938C42.0859 32.293 42.0391 32.5273 42.1914 32.6875C42.3047 32.7578 42.4219 32.8203 42.543 32.8828C42.3945 32.4063 42.4336 31.9102 42.4258 31.4219C42.3594 31.418 42.2227 31.4141 42.1523 31.4141ZM42.5703 32.9258C42.875 33.082 43.1758 33.2422 43.4844 33.3867C43.4297 32.9492 43.4648 32.5117 43.4766 32.0742C43.3867 32.0508 43.3008 32.0313 43.2109 32.0078C43.125 32.3438 43.1172 32.6875 43.2109 33.0234C43.1641 33.0156 43.0664 33.0039 43.0195 33C42.9141 32.6094 43.0312 32.2148 43.0273 31.8203C42.9141 31.7695 42.8008 31.7187 42.6914 31.668C42.5 32.0664 42.6836 32.5078 42.5703 32.9258ZM37.7383 32.043C37.6563 32.5937 37.5117 33.1445 37.1953 33.6094C36.9492 33.9609 37.0586 34.3945 37.1484 34.7773C37.3945 34.1758 37.5547 33.5469 37.7578 32.9297C37.8555 32.6367 37.9844 32.3516 38.0234 32.043C37.9297 32.043 37.8359 32.043 37.7383 32.043ZM43.6562 32.3633C43.6211 32.8164 43.6406 33.3477 43.9727 33.6953C43.9766 33.2656 44.0977 32.8477 44.0859 32.418C43.9414 32.3945 43.8008 32.375 43.6562 32.3633ZM44.4688 32.5391C44.4883 32.7422 44.5156 32.9414 44.5508 33.1406C44.6016 32.9531 44.6484 32.7617 44.6836 32.5664C44.6289 32.5586 44.5195 32.5469 44.4688 32.5391ZM42.1016 33.1172C42.2109 33.1758 42.3203 33.2305 42.4297 33.2852C42.3906 34.1875 42.8125 35.0195 43.0391 35.875C43.082 35.8672 43.1758 35.8555 43.2227 35.8477C43.1758 35.3711 43.0039 34.918 42.9531 34.4414C42.9219 34.0156 42.8242 33.6016 42.7383 33.1836C42.5313 33.1133 42.2852 32.8789 42.1016 33.1172ZM43.0273 33.4805C43.207 34.3555 43.2852 35.2539 43.6016 36.0938C43.6875 36.1484 43.7734 36.1953 43.8633 36.2383C43.9961 36.1016 44.1641 35.9492 44.1602 35.7383C43.918 35.2578 43.5547 34.8516 43.293 34.3789C43.2031 34.2461 43.207 34.0859 43.2227 33.9336C43.3203 34.0391 43.4102 34.1484 43.4805 34.2773C43.7148 34.707 44.0156 35.0938 44.2969 35.5C44.4336 35.2891 44.5664 35.0742 44.6953 34.8633C44.582 34.4375 44.3984 34.0391 44.1758 33.6602C44.1719 33.8438 44.1719 34.0273 44.1602 34.2148C43.8203 33.918 43.5234 33.4961 43.0273 33.4805ZM36.4648 35.4414C36.6289 35.3008 36.8125 35.1797 36.957 35.0156C36.9961 34.7578 36.8945 34.5078 36.8203 34.2695C36.6719 34.6523 36.4922 35.0273 36.4648 35.4414ZM40.1055 34.8945C39.9336 35.7773 39.9531 36.6836 39.7812 37.5703C39.7383 37.4063 39.707 37.2383 39.6602 37.0781C39.5977 37.3203 39.5781 37.5742 39.4922 37.8086C39.3555 37.2461 39.5469 36.6602 39.4414 36.0898C39.3633 36.3984 39.418 36.7227 39.3164 37.0234C39.1406 37.5898 39.0508 38.1875 38.7461 38.7031C38.4414 39.2109 38.2305 39.7656 38.0547 40.3281C38.6328 40.207 39.2148 40.0938 39.7969 39.9883C40.0195 39.9414 40.2852 39.9063 40.4102 39.6914C40.5586 39.5156 40.5117 39.2695 40.5391 39.0547C40.4453 39.125 40.3516 39.1953 40.2578 39.2656C40.1914 38.4414 40.2656 37.6094 40.2578 36.7852C40.2383 36.1523 40.3125 35.5039 40.1055 34.8945ZM44.3477 35.9844C44.2188 36.1758 44.0898 36.3711 43.9258 36.5352C44.1719 36.8711 44.418 37.2109 44.7344 37.4883C44.8008 37.2539 44.8242 36.9883 45.0547 36.8477C45.0977 36.418 44.582 36.2695 44.3477 35.9844ZM36.0547 36.3438C35.8945 36.8125 35.7305 37.2773 35.5664 37.7461C35.8281 37.6016 36.0469 37.3945 36.2773 37.2031C36.2344 36.9102 36.1641 36.6172 36.0547 36.3438ZM43.7852 36.75C43.8828 37.3555 44.0195 37.9609 44.2773 38.5156C44.4141 38.2695 44.5273 38.0078 44.6055 37.7383C44.3711 37.3789 44.0781 37.0625 43.7852 36.75ZM45.082 37.0547C44.9648 37.2656 44.9453 37.5117 44.9102 37.7461C45.0742 37.9102 45.2383 38.0703 45.3984 38.2344C45.3555 37.8438 45.2695 37.4609 45.1875 37.0781C45.1602 37.0703 45.1055 37.0586 45.082 37.0547ZM35.7539 38.0391C35.6523 38.0352 35.5508 38.0312 35.4492 38.0273C35.3672 38.2656 35.2539 38.5117 35.3047 38.7695C35.3594 39.0469 35.4297 39.3164 35.5039 39.5898C35.7539 39.3906 35.8398 39.0781 35.9219 38.7852C36.0469 38.3359 36.2266 37.8984 36.3242 37.4414C36.125 37.6328 35.9336 37.832 35.7539 38.0391ZM40.668 37.9297C40.6328 38.3281 40.6797 38.7266 40.7852 39.1094C40.8789 38.8984 41.0859 38.707 41.0469 38.457C41.0312 38.2266 40.8047 38.0937 40.668 37.9297ZM44.7891 37.9844C44.6563 38.2539 44.5391 38.5234 44.4141 38.793C44.707 39.1797 44.9805 39.582 45.332 39.9219C45.4922 39.6367 45.7852 39.3477 45.7109 38.9961C45.582 38.5352 45.1484 38.2578 44.7891 37.9844ZM35.0938 38.9492C34.8398 39.5352 34.5547 40.1094 34.3242 40.7109C34.6641 40.418 34.9844 40.0977 35.293 39.7695C35.3477 39.4805 35.2266 39.1992 35.0938 38.9492ZM40.7266 39.7891C40.9531 39.7969 41.1836 39.7969 41.4102 39.7891C41.3516 39.4766 41.2695 39.1641 41.1641 38.8633C40.9883 39.1602 40.8398 39.4648 40.7266 39.7891ZM44.4023 39.1367C44.4375 39.4844 44.5547 39.8164 44.6836 40.1406C44.7305 40.1406 44.8242 40.1367 44.8711 40.1328C44.9453 39.7266 44.6836 39.3945 44.4023 39.1367ZM45.5391 40.1523C45.8164 40.543 46.1133 40.9297 46.4492 41.2734C46.2734 40.6914 46.0977 40.0898 45.7852 39.5586C45.6953 39.75 45.5391 39.9297 45.5391 40.1523ZM40.9297 39.9844C39.9492 40.1523 38.9727 40.3398 38.0078 40.5703C37.9648 40.6641 37.9258 40.7617 37.8867 40.8555C38.3711 40.832 38.8438 40.6953 39.3281 40.6328C40.0742 40.4844 40.832 40.4141 41.5781 40.2695C41.543 39.9219 41.1875 39.9336 40.9297 39.9844ZM44.8984 40.3984C44.668 40.4023 44.4844 40.2734 44.3203 40.1328C44.4414 40.418 44.5195 40.7227 44.6211 41.0156C44.7227 40.9766 44.8203 40.9336 44.9141 40.8867C45.0703 40.6016 45.2578 40.2813 45.168 39.9414C45.0703 40.0898 44.9844 40.2461 44.8984 40.3984ZM34.332 41.1055C34.6445 41.0586 34.957 40.9844 35.2617 40.8984C35.3437 40.6211 35.4453 40.3477 35.4766 40.0625C34.9688 40.2266 34.6641 40.7187 34.332 41.1055ZM40.5859 40.625C40.7852 40.6562 40.9844 40.6719 41.1836 40.6953C41 40.8281 40.8047 40.9375 40.6094 41.0508C40.5625 41.375 40.5078 41.6992 40.4805 42.0312C40.4414 42.0391 40.3672 42.0547 40.332 42.0625C40.2969 41.6992 40.3086 41.332 40.3164 40.9688C40.0391 40.9727 39.7578 41 39.4883 41.0859C39.3711 41.4453 39.375 41.8203 39.3398 42.1914C39.2812 42.207 39.168 42.2383 39.1094 42.2539C39.0938 41.8867 39.1328 41.5195 39.1328 41.1523C38.8984 41.1602 38.6719 41.2148 38.4492 41.2852C38.2969 41.6406 38.2305 42.0156 38.1172 42.3828C37.8203 42.0781 38.1328 41.668 38.0781 41.3047C37.9648 41.3555 37.8477 41.3984 37.7461 41.4766C37.6172 41.8672 37.5195 42.2734 37.4258 42.6758C38.3867 42.6602 39.3125 42.3398 40.2695 42.2852C40.6563 42.207 41.0469 42.1328 41.4414 42.1055C41.4688 41.8398 41.5078 41.5742 41.5586 41.3125C41.5859 41.1367 41.7656 40.9961 41.7148 40.8086C41.6875 40.6914 41.6484 40.5781 41.6211 40.4648C41.2656 40.4531 40.9219 40.5234 40.5859 40.625ZM45.3984 40.3984C45.293 40.6719 45.1328 40.9297 45.0859 41.2227C45.3047 41.3047 45.5273 41.3789 45.7578 41.4297C46.0469 41.4883 46.2891 41.6758 46.5625 41.7891C46.2539 41.2656 45.8203 40.8281 45.3984 40.3984ZM38.4062 41C38.7148 41.0312 39.0469 41.0312 39.3047 40.8398C39 40.8437 38.6992 40.9141 38.4062 41ZM45.1016 41.4727C45.0977 41.7852 45.082 42.0977 45.1211 42.4102C45.1914 42.625 45.25 42.8477 45.2812 43.0742C45.7695 43.2812 46.2461 43.5273 46.7734 43.6094C46.7266 43.1406 46.6641 42.6758 46.6641 42.2031C46.5156 42.0586 46.3203 41.9805 46.1484 41.8711C46.125 42.3398 46.1953 42.8164 46.1406 43.2852C45.8008 42.8711 45.8789 42.3008 46 41.8203C45.6914 41.7266 45.3984 41.5859 45.1016 41.4727ZM33.1406 42.3242C32.9023 42.5664 32.9102 42.9219 32.9336 43.2383C33.4727 43.2383 34.0312 43.3359 34.5469 43.1406C34.6602 42.8047 34.793 42.4688 34.7891 42.1094C34.5508 42.1719 34.3164 42.2422 34.082 42.3203C34.0508 42.5742 34.0039 42.8242 33.9648 43.0781C33.8945 43.0781 33.8203 43.0781 33.7461 43.0781C33.7383 42.8672 33.7305 42.6602 33.7227 42.4492C33.5586 42.4844 33.3945 42.5234 33.2344 42.5586C33.3477 42.4336 33.4609 42.3125 33.5742 42.1836C33.4258 42.2227 33.2773 42.2539 33.1406 42.3242ZM41.7344 42.2812C41.7656 42.8047 41.793 43.3281 41.8867 43.8438C41.8711 44.1992 41.8789 44.5547 41.8867 44.9102C41.3906 44.9258 40.8867 44.8984 40.3945 44.9766C40.9102 45.0508 41.4297 44.9844 41.9453 45.0586C42.1289 45.0742 42.3164 45.0313 42.5 45.0078C42.2969 44.4727 42.4922 43.8906 42.3398 43.3555C42.3672 42.9687 42.0898 42.668 41.8359 42.418C41.9297 42.3984 42.1133 42.3633 42.207 42.3438C42.0508 42.3164 41.8906 42.293 41.7344 42.2812ZM46.918 42.2773C46.9102 42.7461 46.9258 43.2188 47.0508 43.6719C47.3281 43.8047 47.6211 43.8906 47.918 43.9688C47.918 43.5469 47.8164 43.1367 47.7734 42.7227C48.1797 42.7266 48.5312 42.9609 48.9219 43.0352C48.5664 42.8516 48.168 42.7656 47.8125 42.5859C47.5312 42.4375 47.2305 42.3281 46.918 42.2773ZM40.3867 42.5195C40.5117 42.5781 40.6367 42.6367 40.7617 42.6992C40.3633 42.7422 39.9531 42.7344 39.5664 42.8516C39.4063 43.3711 39.5 43.9258 39.4375 44.4609C39.3438 44.4648 39.2461 44.4688 39.1484 44.4766C39.1094 43.9531 39.1211 43.4258 39.1992 42.9102C38.5586 42.9414 37.9219 43.0625 37.2891 43.1602C37.1328 43.6719 36.9688 44.1836 36.8945 44.7188C37.2227 44.2031 37.4414 43.625 37.7812 43.1172C37.8242 43.2539 37.9062 43.3906 37.8555 43.5352C37.7969 43.8945 37.7773 44.2773 37.9336 44.6133C38.0625 44.3789 38.1641 44.1328 38.3047 43.9062C38.3906 44.2852 38.2344 44.707 37.9414 44.957C37.5938 44.707 37.6289 44.2695 37.6055 43.8945C37.3789 44.25 37.1953 44.6289 36.9883 44.9961C37.4219 45.043 37.8555 45.0156 38.2891 45.0234C38.9219 45.0234 39.582 45.043 40.1719 44.7695C39.9961 44.7188 39.8203 44.6719 39.6445 44.6211C40.1836 44.2539 40.9023 44.1328 41.5273 44.3242C41.4805 44.3867 41.3906 44.5117 41.3477 44.5742C41.1797 44.5391 41.0195 44.418 40.8438 44.4688C40.6328 44.543 40.4375 44.6523 40.2422 44.7617C40.6836 44.7852 41.1094 44.6562 41.5469 44.6172C41.582 43.8633 41.4336 43.1211 41.457 42.3672C41.0938 42.3555 40.7383 42.4297 40.3867 42.5195ZM48.1445 43.1875C48.1016 43.4922 48.1328 43.8164 48.2773 44.0938C48.418 44.1953 48.5859 44.2344 48.75 44.2891C48.7734 43.9063 48.6992 43.5117 48.8555 43.1523C48.6172 43.1562 48.3828 43.1641 48.1445 43.1875ZM32.957 43.8789C32.5313 44.1289 32.4414 44.6523 32.418 45.1094C32.9297 45.0078 33.4531 44.9922 33.9688 44.918C34.1094 44.5195 34.2422 44.1172 34.3594 43.7109C33.8867 43.6836 33.3984 43.6875 32.957 43.8789ZM47.1836 44.0859C47.5117 44.3203 47.9141 44.4023 48.2891 44.5312C47.9844 44.2695 47.5859 44.1133 47.1836 44.0859ZM46.957 44.3594C47.4141 44.6289 47.9141 44.9062 48.4531 44.9336C48.043 44.582 47.4805 44.4531 46.957 44.3594ZM32.6719 45.3555C32.3867 45.4805 32.2383 45.7734 32.043 45.9961C32.0039 45.9531 31.9219 45.875 31.8789 45.832C31.918 45.625 31.9727 45.418 32.0078 45.2109C31.6602 45.5703 31.4297 46.0117 31.1328 46.4102C30.9727 46.6523 30.7422 46.8945 30.7695 47.2109C30.7539 47.9062 30.7539 48.6055 30.7695 49.3047C31.1289 49.0664 31.4883 48.832 31.8594 48.6094C32.0469 48.4922 32.3164 48.5352 32.4609 48.3438C32.6836 48.1016 32.9023 47.8594 33.1094 47.6055C33.2461 47.3711 33.3047 47.1016 33.3867 46.8477C33.543 46.2891 33.7617 45.7461 33.8359 45.1641C33.4453 45.1914 33.0469 45.2383 32.6719 45.3555ZM48.3203 45.1289C48.3516 45.4102 48.293 45.6758 48.1758 45.9297C48.1875 46.3164 48.3633 46.7031 48.6523 46.9688C48.7695 46.3984 48.3047 45.8281 48.6094 45.2852C48.5117 45.2305 48.418 45.1797 48.3203 45.1289ZM46.4219 45.2148C46.5508 45.875 46.6953 46.5898 47.1914 47.0781C47.2383 46.5234 47.043 45.9687 46.8242 45.4648C46.7656 45.2891 46.5742 45.2539 46.4219 45.2148ZM47.2734 45.5703C47.3516 46.2227 47.543 46.9062 48.0391 47.3711C48.0742 46.8789 47.9883 46.3867 47.8398 45.918C47.7773 45.6641 47.4766 45.6445 47.2734 45.5703ZM46.625 46.7773C46.5898 46.918 46.543 47.0547 46.5156 47.1992C46.582 47.4297 46.6602 47.6563 46.7383 47.8828C46.9492 47.8086 47.1562 47.6406 47.3906 47.7109C47.6914 47.8125 47.9727 47.9688 48.2461 48.1328C48.4609 48.3477 48.6719 48.5664 48.9102 48.7578C48.918 48.5586 48.9297 48.3594 48.9219 48.1602C48.7617 48.0352 48.5664 47.9609 48.4336 47.8008C48.6094 47.7773 48.793 47.7695 48.9688 47.7617C48.7031 47.5195 48.5742 47.1602 48.2695 46.9492C48.2578 47.1797 48.25 47.4141 48.2305 47.6445C47.8242 47.6719 47.6484 47.2578 47.4336 46.9883C47.3828 47.1172 47.3281 47.25 47.2656 47.375C46.9883 47.2539 46.8008 47.0156 46.625 46.7773ZM36.2773 47.8086C36.0781 48.0977 35.8477 48.3633 35.6641 48.6641C36.1875 48.5039 36.4648 48.0039 36.7578 47.5859C36.5859 47.6211 36.375 47.6367 36.2773 47.8086ZM38.2773 47.5625C38.7812 47.8164 39.2148 48.1875 39.6367 48.5625C39.8984 48.8008 40.1406 49.0703 40.2734 49.4023C40.3477 49.6523 40.6094 49.7461 40.8008 49.8906C40.9336 49.6289 41.2305 49.4062 41.2031 49.0938C40.9688 48.8398 40.6797 48.6523 40.4141 48.4414C40.3711 48.5 40.332 48.5586 40.293 48.6172C40.2187 48.4414 40.1289 48.2734 40.0039 48.1289C39.9375 48.168 39.8672 48.1992 39.7969 48.2227C39.6445 47.9961 39.3711 47.8984 39.1719 47.7188C38.9297 47.4922 38.5781 47.5547 38.2773 47.5625ZM39.2227 47.5547C39.4141 47.7305 39.582 47.9414 39.8203 48.0586C39.9219 48.0977 39.9961 48.0039 40.0781 47.9648C40.0469 47.8203 40.0078 47.6836 39.9688 47.543C39.7227 47.5547 39.4727 47.5547 39.2227 47.5547ZM40.3867 47.5469C40.4453 47.7773 40.4727 48.0156 40.5352 48.2461C40.8008 48.5039 41.1133 48.7109 41.4336 48.8945C41.707 48.4727 41.957 48.0313 42.1133 47.5508C41.5352 47.5547 40.9609 47.5625 40.3867 47.5469ZM42.3633 47.5508C42.1641 48.0703 41.8906 48.5547 41.625 49.0391C41.9922 49.2852 42.3477 49.5508 42.7148 49.8008C42.6406 49.25 42.2891 48.7617 42.3164 48.1953C42.5 48.3828 42.7031 48.5586 42.8359 48.7891C42.8281 48.9531 42.7344 49.1211 42.8125 49.2812C42.9727 49.8008 43.2422 50.2852 43.3828 50.8125C43.5078 51.1992 43.6484 51.582 43.8008 51.9609C43.9648 52.375 44.082 52.8086 44.3359 53.1797C44.4219 53.5234 44.5273 53.8672 44.707 54.1758C44.9141 54.043 45.0859 53.8633 45.2188 53.6602C44.5391 51.6172 43.7812 49.6016 43.1211 47.5508C42.8672 47.5547 42.6133 47.5508 42.3633 47.5508ZM36.5781 48.4141C36.9531 48.3438 37.3789 48.1172 37.418 47.6953C37.3633 47.6914 37.25 47.6797 37.1953 47.6758C36.9844 47.918 36.7461 48.1367 36.5781 48.4141ZM37.3633 48.4414C37.6992 48.2813 37.9883 48.043 38.2383 47.7734C37.8086 47.6641 37.5625 48.1367 37.3633 48.4414ZM43.5234 47.7188C43.5703 48.0703 43.6953 48.4063 43.8438 48.7266C43.8477 48.3633 43.7109 48.0234 43.5234 47.7188ZM37.9453 48.457C38.1133 48.4648 38.2852 48.5039 38.4492 48.4609C38.5859 48.3477 38.6914 48.2109 38.8047 48.0781C38.6875 48.0156 38.5742 47.957 38.457 47.8984C38.2852 48.082 38.1055 48.2617 37.9453 48.457ZM30.7773 50.832C30.7383 51.0586 30.7695 51.2891 30.7773 51.5195C31.1211 51.0273 31.5234 50.5781 31.8438 50.0664C32.0703 49.6953 32.4023 49.4062 32.6562 49.0586C32.8242 48.7227 32.918 48.3555 32.9883 47.9922C32.1992 48.8945 31.4492 49.8359 30.7773 50.832ZM47.0625 48.082C47.0977 48.4609 47.2188 48.8242 47.3633 49.1758C47.3984 49.3281 47.5195 49.4297 47.6523 49.5078C47.5078 49.0156 47.332 48.5234 47.0625 48.082ZM47.3711 48.0117C47.3945 48.2812 47.4883 48.5352 47.5898 48.7812C47.7266 49.1133 47.8125 49.4883 48.1055 49.7227C48.0898 49.3086 47.8203 48.9727 47.7031 48.5859C47.6211 48.3789 47.6172 48.0977 47.3711 48.0117ZM47.7539 48.1953C47.8398 48.6563 48.1094 49.0508 48.2852 49.4805C48.3828 49.7344 48.5781 49.9336 48.8008 50.0898C48.7695 49.5859 48.4375 49.1836 48.2578 48.7266C48.1641 48.4883 48 48.2813 47.7539 48.1953ZM38.7656 48.8125C38.8867 48.8242 39.0039 48.8398 39.1289 48.8516C39.1211 48.75 39.1133 48.6523 39.1094 48.5508C39.0547 48.5352 38.9492 48.5 38.8945 48.4844C38.7109 48.4922 38.7852 48.6914 38.7656 48.8125ZM37.7422 48.7539C37.5859 48.8359 37.6328 49.0352 37.6016 49.1836C37.8164 49.0781 38 48.9258 38.1406 48.7383C38.0078 48.7305 37.8711 48.707 37.7422 48.7539ZM30.7656 49.582C30.7539 49.8828 30.7539 50.1836 30.7734 50.4844C31.1641 49.9141 31.5977 49.375 32.0039 48.8203C31.5508 49.0039 31.1758 49.3242 30.7656 49.582ZM38.4297 48.9141C38.375 49.0078 38.3242 49.1016 38.2695 49.1992C38.4063 49.1836 38.543 49.168 38.6797 49.1445C38.6797 49.0859 38.6797 48.9648 38.6836 48.9062C38.5977 48.9062 38.5117 48.9102 38.4297 48.9141ZM48.5586 48.7852C48.5781 49.0938 48.7539 49.3594 48.8945 49.6289C48.8906 49.3125 48.8281 48.9844 48.5586 48.7852ZM35.3945 49.4297C35.1992 50.0156 35.0039 50.6055 34.8164 51.1953C34.5703 51.9688 34.2812 52.7734 34.4375 53.6016C34.5664 53.9375 34.8828 54.2148 35.2539 54.2344C36.1484 54.3125 37.0391 53.9687 37.9336 54.1484C38.2695 54.3008 38.4492 54.6406 38.5938 54.9609C38.8789 54.9844 39.1719 54.9922 39.4609 54.9922C39.2852 53.8594 39.1445 52.6953 38.6133 51.6602C38.3906 51.1016 37.9688 50.6641 37.6562 50.1641C37.6797 50.1172 37.7227 50.0273 37.7461 49.9844C37.9062 50.1328 38.043 50.3086 38.168 50.4883C38.2187 50.4922 38.3242 50.5 38.3789 50.5039C38.4961 50.3477 38.6289 50.1914 38.7461 50.0312C38.9062 49.8203 38.8359 49.5352 38.8711 49.2891C38.6719 49.375 38.4766 49.4609 38.2773 49.543C38.1641 49.4648 38.0508 49.3828 37.9375 49.3047C37.625 49.4219 37.3438 49.5938 37.0938 49.8125C37.2227 49.5352 37.3203 49.2461 37.3672 48.9453C37.1953 49.0273 37.0391 49.1406 36.8555 49.1914C36.7773 49.1172 36.707 49.0312 36.6367 48.9531C36.4922 49.0273 36.3477 49.1055 36.2031 49.1836C36.1094 49.1094 36.0234 49.0313 35.9219 48.9727C35.707 49.0625 35.4688 49.1914 35.3945 49.4297ZM43.9961 49.0625C43.875 49.3789 44.0312 49.6914 44.125 49.9883C44.4453 50.9727 44.7969 51.9453 45.1484 52.9219C45.1328 52.582 45.0273 52.2617 44.9336 51.9375C44.6758 51.0977 44.418 50.2578 44.1719 49.4141C44.1328 49.2852 44.082 49.1641 43.9961 49.0625ZM41.2344 49.6406C41.0977 49.875 40.8711 50.1094 40.9492 50.4062C40.9844 51.043 41.5859 51.3906 42.043 51.7305C42.3672 51.293 42.7266 50.8867 42.9922 50.4141C42.5742 50.0195 42.1406 49.625 41.6328 49.3516C41.4258 49.2773 41.3359 49.5117 41.2344 49.6406ZM39.3672 49.5273C39.3672 49.5781 39.3672 49.6836 39.3672 49.7344C39.457 49.6914 39.5469 49.6484 39.6367 49.6094C39.6367 49.5586 39.6367 49.457 39.6367 49.4062C39.5469 49.4453 39.457 49.4883 39.3672 49.5273ZM47.3477 49.6875C47.3516 49.7344 47.3594 49.8281 47.3633 49.875C47.4844 49.8711 47.6016 49.8672 47.7227 49.8672C47.7188 49.832 47.707 49.7617 47.7031 49.7227C47.582 49.7109 47.4648 49.6992 47.3477 49.6875ZM40.2305 49.9297C40.2344 50.0273 40.2383 50.125 40.2422 50.2227C40.293 50.2227 40.3945 50.2227 40.4453 50.2266C40.4336 50.1367 40.4219 50.0469 40.4102 49.957C40.3633 49.9531 40.2734 49.9375 40.2305 49.9297ZM38.9844 50.0898C38.793 50.2812 38.6406 50.5078 38.5195 50.75C38.4336 51.0547 38.7227 51.293 38.8633 51.5312C39.1289 51.207 39.3672 50.8672 39.5898 50.5156C39.7031 50.3555 39.7383 50.1602 39.7461 49.9688C39.4961 49.9961 39.1875 49.8945 38.9844 50.0898ZM47.4219 50.1133C47.6602 50.9453 47.9102 51.7812 48.2109 52.5938C48.4297 53.1562 48.6719 53.7773 49.2227 54.0898C49.832 54.4062 50.5273 54.2305 51.168 54.1445C51.5859 54.1094 52.1133 54.0117 52.4102 54.3945C52.7891 54.832 52.707 55.4492 52.6445 55.9844C53.8828 55.9609 55.1211 56.0078 56.3555 55.9531C56.0898 55.5117 55.668 55.2109 55.2891 54.8789C55.2305 55.125 55.2031 55.3789 55.1797 55.6328C55.1328 55.6406 55.043 55.6602 54.9961 55.668C54.9414 55.2305 55.1484 54.707 54.8125 54.3477C54.5195 53.9805 54.207 53.6289 53.9023 53.2734C53.8359 53.582 53.8125 53.8984 53.8047 54.2148C53.7617 54.2227 53.6797 54.2344 53.6367 54.2422C53.6289 54.1094 53.6172 53.9766 53.6094 53.8438C53.375 53.8398 53.1406 53.8398 52.9062 53.8555C53.1992 54.3516 53.5234 54.8281 53.8281 55.3203C53.9297 55.4492 53.9023 55.6172 53.9141 55.7734C53.6172 55.4492 53.4102 55.0586 53.1172 54.7344C52.8359 54.4258 52.6523 54.043 52.3633 53.7422C52.3086 53.8555 52.2578 53.9688 52.207 54.082C52.0625 53.9766 51.9492 53.7695 51.75 53.7969C50.8047 53.8008 49.8633 53.793 48.9219 53.8047C48.918 52.7891 48.918 51.7734 48.9219 50.7617C48.6953 50.6953 48.5508 50.5078 48.3789 50.3594C48.0938 50.1875 47.75 50.125 47.4219 50.1133ZM40.0117 50.2695C39.9023 50.9297 40.0625 51.5977 40.125 52.2578C40.2461 52.8359 40.2305 53.4531 40.4727 54.0039C40.582 53.6172 40.4766 53.2148 40.4414 52.8203C40.3008 51.9688 40.2969 51.0898 40.0117 50.2695ZM40.3164 50.4062C40.3281 50.6094 40.3594 50.8125 40.4062 51.0117C40.582 51.8242 40.5938 52.6562 40.7344 53.4688C40.7695 53.7344 40.9805 53.9687 40.9219 54.2461C40.8203 54.3828 40.668 54.4688 40.5117 54.5312C40.3984 54.3555 40.3008 54.1719 40.2422 53.9688C39.9102 52.9062 39.9648 51.7734 39.7109 50.6914C39.4531 51.1133 39.3281 51.5938 39.1016 52.0312C39.0781 52.4102 39.3242 52.7422 39.3633 53.1172C39.4531 53.7422 39.6133 54.3594 39.6484 54.9961C40.1367 55.0273 40.6289 55.0313 41.1211 55.0391C41.2227 54.6211 41.4766 54.2383 41.8867 54.0781C41.8203 53.9297 41.7578 53.7852 41.6914 53.6406C41.5273 53.5977 41.3633 53.5469 41.2031 53.4883C41.3438 53.3984 41.5 53.3359 41.6719 53.3242C41.6133 53.1289 41.5508 52.9336 41.4922 52.7383C41.3945 52.707 41.2344 52.7656 41.2109 52.6328C40.9219 51.8867 40.7109 51.1055 40.3164 50.4062ZM31.1875 52.4727C31.3359 52.457 31.4922 52.4687 31.6211 52.3867C31.7383 52.1172 31.8398 51.8359 31.9102 51.5508C31.8906 51.3477 31.7852 51.1563 31.7773 50.9453C31.5586 51.4492 31.0586 51.8789 31.1875 52.4727ZM42.3164 51.875C42.8164 52.3906 43.4219 52.8047 44.0234 53.1992C43.7539 52.418 43.4453 51.6484 43.1602 50.875C42.8281 51.1406 42.375 51.4219 42.3164 51.875ZM41.3398 51.4648C41.3633 51.7773 41.4727 52.0703 41.5859 52.3633C41.7031 52.2227 41.8867 52.0703 41.8242 51.8672C41.6758 51.7148 41.5039 51.5898 41.3398 51.4648ZM41.7266 52.7578C41.7969 53.1133 41.8906 53.5078 42.1992 53.7344C42.4336 53.9062 42.6641 54.168 42.9844 54.1406C43.293 53.918 43.5547 53.6406 43.832 53.3828C43.2383 52.9805 42.6797 52.5273 42.0977 52.1016C41.9336 52.2852 41.6719 52.4766 41.7266 52.7578ZM54.0859 53.2383C54.418 53.6172 54.668 54.0742 55.0742 54.3789C54.8828 53.9453 54.5508 53.6016 54.2891 53.2109C54.0547 52.8828 53.8164 52.5547 53.5312 52.2656C53.5312 52.668 53.8711 52.9375 54.0859 53.2383ZM30.8164 52.6602C30.793 52.7227 30.7422 52.8477 30.7148 52.9102C30.9648 52.9258 31.2109 52.9141 31.457 52.875C31.4648 52.8164 31.4844 52.6953 31.4922 52.6367C31.2695 52.6367 31.0391 52.6289 30.8164 52.6602ZM30.7578 53.1719C30.7617 53.2188 30.7617 53.3125 30.7617 53.3594C31.0195 53.3711 31.2695 53.3242 31.418 53.0938C31.1953 53.0898 30.9766 53.1289 30.7578 53.1719ZM30.6641 53.8086C30.4336 53.8008 30.207 53.8008 29.9766 53.8086C30.1172 53.9414 30.2734 54.0742 30.4766 54.0859C30.7969 54.1094 31.0273 53.8008 31.0898 53.5117C30.9102 53.5508 30.7695 53.6602 30.6641 53.8086ZM43.3672 54.1992C43.7305 54.2422 44.0977 54.2539 44.4648 54.2344C44.375 53.9844 44.2617 53.7461 44.1367 53.5156C43.8516 53.7031 43.5859 53.9297 43.3672 54.1992ZM28.1445 53.8008C28.1563 53.9492 28.168 54.0937 28.1797 54.2422C28.3594 54.1719 28.5352 54.1055 28.7227 54.0625C29.0508 54.0352 29.375 54.1484 29.7031 54.1289C29.6992 54.0234 29.6992 53.9141 29.6992 53.8086C29.1797 53.7969 28.6641 53.8086 28.1445 53.8008ZM38.5273 55.418C39.3906 55.457 40.25 55.5312 41.1172 55.5156C41.1133 55.4336 41.1133 55.3477 41.1133 55.2695C40.4297 55.2656 39.75 55.2383 39.0664 55.2344C38.8711 55.2461 38.6133 55.1836 38.5273 55.418ZM26.8398 55.9531C27.1992 55.9883 27.5586 55.9531 27.918 55.9375C27.8516 55.7734 27.7852 55.6055 27.7148 55.4453C27.418 55.6055 27.1133 55.7578 26.8398 55.9531Z" fill="black"/>
<path d="M5.46094 37.9883C6.61719 37.7265 7.8125 37.6328 9 37.6875C10.3945 37.7695 11.8203 38.0156 13.043 38.7265C14.0469 39.289 14.8672 40.2226 15.1836 41.3398C15.3516 41.8203 15.3047 42.3359 15.3203 42.8359C13.7422 42.8398 12.1641 42.8398 10.5898 42.8398C10.5781 42.3867 10.4453 41.9062 10.082 41.6133C9.67578 41.2969 9.16015 41.1445 8.65234 41.1523C8.07812 41.125 7.48437 41.1914 6.96484 41.4492C6.65625 41.6289 6.34765 41.957 6.4375 42.3476C6.53906 42.8476 7.05859 43.0586 7.47656 43.2344C8.32031 43.5351 9.21094 43.6562 10.082 43.8476C11.043 44.0312 11.9883 44.2929 12.8984 44.6406C13.9922 45.0781 15.0195 45.8476 15.4766 46.9687C15.8594 47.75 15.75 48.6406 15.7383 49.4804C15.5937 50.8828 14.8008 52.2187 13.5977 52.9687C12.0586 53.9492 10.1719 54.164 8.38672 54.1211C7.86328 54.1523 7.35156 54.0429 6.83203 54.0351C5.24609 53.8867 3.5664 53.4883 2.38281 52.3476C1.34765 51.3554 0.949217 49.8711 0.953123 48.4726C2.57031 48.4765 4.1875 48.4648 5.80469 48.4765C5.78515 48.9375 5.84765 49.4297 6.15625 49.8008C6.55469 50.3125 7.24609 50.4336 7.85937 50.4726C8.62109 50.4687 9.44531 50.5469 10.1367 50.1679C10.5469 49.9765 10.6875 49.4219 10.4883 49.0312C10.3555 48.7773 10.082 48.6523 9.83594 48.5351C8.82812 48.0859 7.71484 47.9961 6.65625 47.7304C5.44531 47.457 4.21484 47.1133 3.15625 46.4375C2.10937 45.7695 1.35156 44.6211 1.26562 43.3711C1.10937 42.1367 1.39062 40.789 2.22265 39.832C3.03125 38.8437 4.24219 38.289 5.46094 37.9883Z" fill="black"/>
<path d="M39.3359 38.375C39.3984 38.1016 39.6094 37.9297 39.8477 37.8086C39.8711 38.0508 39.7227 38.2383 39.5625 38.4023C39.5078 38.3984 39.3906 38.3828 39.3359 38.375Z" fill="black"/>
<path d="M39.2734 38.8398C39.4453 38.7617 39.6172 38.6836 39.793 38.6211C39.7617 38.8867 39.5508 39.0469 39.3125 39.1289C39.3008 39.0313 39.2852 38.9336 39.2734 38.8398Z" fill="black"/>
<path d="M39.2188 39.5391C39.3086 39.5195 39.4023 39.5 39.4922 39.4805C39.4727 39.5859 39.4531 39.6914 39.4336 39.7969C39.3672 39.7969 39.2422 39.793 39.1758 39.7891C39.1914 39.707 39.2031 39.6211 39.2188 39.5391Z" fill="black"/>
<path d="M63.2891 43.4649C64.0859 42.3829 65.332 41.668 66.6523 41.4493C67.2461 41.4063 67.8477 41.418 68.4414 41.4415C69.4375 41.5704 70.4219 42.1055 70.957 42.9766C71.0586 43.129 71.1445 43.293 71.2383 43.4532C72.0625 42.379 73.3125 41.6524 74.6445 41.4415C75.5078 41.4219 76.4102 41.3321 77.2227 41.6758C78.1836 42.0157 78.9219 42.8321 79.2461 43.7891C79.5742 44.7813 79.6211 45.836 79.6055 46.8711C79.6094 49.1758 79.6016 51.4844 79.6094 53.7891C78.0742 53.8086 76.5391 53.793 75 53.793C75 51.3672 75 48.9454 75 46.5157C74.9844 45.9688 74.832 45.3711 74.3789 45.0235C74.0039 44.7305 73.5039 44.7813 73.0625 44.8243C72.2148 44.9922 71.6758 45.8711 71.7031 46.6954C71.707 49.0626 71.6992 51.4297 71.7109 53.793C70.1719 53.8008 68.6367 53.7969 67.1016 53.7969C67.1055 51.3399 67.1016 48.8868 67.1016 46.4297C67.0898 45.8008 66.8203 45.0782 66.1836 44.8438C65.8203 44.7774 65.4414 44.7774 65.0781 44.8399C64.293 45.0704 63.8047 45.8946 63.8047 46.6915C63.8086 49.0586 63.8047 51.4258 63.8086 53.7969C62.2852 53.7969 60.7617 53.7969 59.2383 53.7969C59.2461 49.7579 59.2422 45.7149 59.2422 41.6758C60.4961 41.6797 61.75 41.6641 63.0039 41.6836C63.0742 42.2813 63.1719 42.8751 63.2891 43.4649Z" fill="black"/>
<path d="M30.8203 47.0273C31.2734 46.9375 31.7109 46.7734 32.168 46.707C32.168 46.7539 32.168 46.8437 32.168 46.8867C31.9219 46.9648 31.6797 47.0469 31.4414 47.1445C31.418 47.5117 31.5508 47.8594 31.6758 48.1992C31.6094 48.207 31.4844 48.2188 31.4219 48.2266C31.2305 47.9102 31.2148 47.4727 30.8633 47.2812C30.8516 47.2188 30.8281 47.0937 30.8203 47.0273Z" fill="black"/>
<path d="M19.5938 57.0157C21.6523 56.9844 23.7109 56.9844 25.7695 56.9844C26.0039 56.9844 26.2305 56.9219 26.4609 56.9258C28.7539 56.9297 31.043 56.9258 33.332 56.9297C33.6836 56.9297 34.0352 56.9102 34.3789 56.9688C35.1602 57.0118 35.9414 56.9844 36.7227 57.0274C37.5313 57.1407 38.3516 57.0313 39.1562 57.1563C39.8828 57.1836 40.6094 57.168 41.332 57.1993C42.082 57.3086 42.8438 57.211 43.5938 57.3243C44.207 57.3438 44.8281 57.3282 45.4453 57.3633C45.4453 57.3985 45.4492 57.4727 45.4531 57.5079C44.6016 57.5352 43.7461 57.543 42.8984 57.4532C42.1133 57.4376 41.3281 57.4376 40.543 57.4102C39.7109 57.3008 38.8633 57.3946 38.0273 57.2852C37.2734 57.2422 36.5195 57.2774 35.7656 57.2305C35.4492 57.1719 35.1289 57.1836 34.8125 57.1758C31.1875 57.1368 27.5664 57.168 23.9453 57.1876C22.1094 57.3438 20.2539 57.129 18.4219 57.3633C18.4258 57.3165 18.4297 57.2305 18.4297 57.1876C18.8047 57.0626 19.2031 57.0704 19.5938 57.0157Z" fill="black"/>
<path d="M31.9727 58.0547C32.3594 57.3437 33.5313 57.3633 33.8906 58.0937C33.9219 58.3828 33.957 58.7031 33.7891 58.9609C33.6055 59.289 33.2734 59.4883 32.9883 59.7148C33.2266 60.1094 33.4766 60.5 33.7656 60.8594C34.0234 60.2734 34.1524 59.5937 34.6328 59.1289C35.0234 58.7422 35.7422 58.6992 36.1289 59.1172C36.5195 59.5312 36.3125 60.3515 35.7422 60.4844C35.5117 60.5 35.2227 60.5547 35.0508 60.3554C34.8906 60.2617 34.9336 60.0625 34.9375 59.9062C35 59.7695 35.1563 59.7734 35.2852 59.7422C35.3711 59.8437 35.4258 59.9844 35.5391 60.0625C35.8086 60.0703 35.8672 59.7383 35.8047 59.5312C35.6914 59.2695 35.3242 59.1758 35.0938 59.3398C34.9024 59.4258 34.8125 59.6289 34.7188 59.8047C34.5508 60.1719 34.4219 60.5547 34.2539 60.9219C34.1914 61.0742 34.0899 61.25 34.168 61.4179C34.3477 61.6133 34.5742 61.7812 34.8359 61.8476C35.1055 61.875 35.3789 61.8476 35.6524 61.8711C35.6563 62.0117 35.6524 62.1523 35.6445 62.2969C35.2813 62.3008 34.918 62.3242 34.5586 62.289C34.2344 62.2226 33.9961 61.9804 33.7656 61.7617C33.5195 62.0078 33.2344 62.2539 32.8789 62.3008C32.4024 62.3437 31.8594 62.3711 31.5 62.0039C31.0781 61.6445 31.0742 61.0429 31.1524 60.5429C31.2969 60.0429 31.7734 59.7539 32.1914 59.4961C32.0156 59.0469 31.7383 58.5351 31.9727 58.0547ZM32.6328 58.0859C32.207 58.3906 32.5977 58.914 32.7305 59.2773C33.0781 59.125 33.4609 58.8047 33.3789 58.375C33.375 58.0078 32.8867 57.9492 32.6328 58.0859ZM31.707 60.7734C31.707 61.0429 31.6445 61.3633 31.8555 61.5703C32.2461 62.0547 33.0469 61.9101 33.3789 61.4336C33.418 61.2656 33.2578 61.1484 33.1836 61.0156C32.9102 60.664 32.7109 60.2617 32.418 59.9258C32.1016 60.1133 31.707 60.3554 31.707 60.7734Z" fill="black"/>
<path d="M57.7969 57.625C58.1992 57.6328 58.5977 57.6367 58.9961 57.6289C59.0352 58.9727 58.9805 60.3164 59.0273 61.6602C59.168 61.8945 59.4883 61.7383 59.7109 61.793C59.7109 61.9258 59.7031 62.0586 59.6992 62.1914C59.0703 62.207 58.4453 62.1953 57.8164 62.1992C57.8125 62.0625 57.8086 61.9219 57.8125 61.7852C58.0117 61.7813 58.2148 61.7812 58.4141 61.7812C58.5313 61.4922 58.5 61.1758 58.5039 60.8711C58.5 60.0859 58.5039 59.3008 58.5039 58.5156C58.5117 58.3516 58.4609 58.1953 58.4141 58.043C58.2031 58.0469 57.9922 58.0508 57.7812 58.0469C57.7812 57.9062 57.7852 57.7656 57.7969 57.625Z" fill="black"/>
<path d="M74.6875 57.6328C75.082 57.625 75.4805 57.6406 75.8789 57.6289C75.8945 58.8828 75.8789 60.1367 75.8867 61.3945C75.8828 61.5273 75.9219 61.6562 75.9609 61.7812C76.1641 61.7812 76.3711 61.7813 76.5781 61.7891C76.5742 61.9258 76.5742 62.0664 76.5703 62.2031C76.2305 62.1953 75.8906 62.2031 75.5547 62.207C75.4688 62.1406 75.3984 62.0586 75.3242 61.9844C74.9375 62.2656 74.4453 62.3828 73.9766 62.2656C73.5313 62.1328 73.1523 61.7812 73.0039 61.3398C72.7461 60.6328 72.8008 59.7773 73.2813 59.1758C73.8047 58.582 74.8008 58.582 75.3594 59.1289C75.3711 58.8086 75.3828 58.4883 75.3555 58.1719C75.2109 57.9414 74.8984 58.082 74.6719 58.0352C74.6758 57.8984 74.6797 57.7656 74.6875 57.6328ZM74.1172 59.1914C73.6953 59.3086 73.4531 59.7539 73.4375 60.168C73.4063 60.6484 73.3867 61.1992 73.7461 61.5703C74.0234 61.9063 74.543 61.9609 74.9102 61.7422C75.2539 61.5703 75.3555 61.1445 75.3633 60.7891C75.3594 60.4063 75.4258 59.9883 75.2266 59.6367C75.0391 59.2305 74.5273 59.1055 74.1172 59.1914Z" fill="black"/>
<path d="M4.74609 57.789C5.09766 57.4765 5.53906 57.7265 5.94531 57.7031C6.6875 57.7617 7.44922 57.457 8.16797 57.7421C8.52734 57.8515 8.88672 58.1562 8.88281 58.5625C8.87891 58.8085 8.94141 59.1093 8.75 59.3085C8.59766 59.4882 8.39844 59.6093 8.21094 59.7421C8.56641 59.8789 8.94531 60.0859 9.07422 60.4726C9.375 61.2539 8.75 62.125 7.94922 62.2148C7.3125 62.2617 6.67578 62.2031 6.03906 62.2031C5.62109 62.1992 5.20312 62.25 4.78906 62.2031C4.79297 62.0703 4.79297 61.9375 4.80078 61.8085C5.07422 61.7968 5.34766 61.8007 5.62109 61.7851C5.66016 61.5703 5.72266 61.3554 5.71875 61.1367C5.71484 60.2929 5.71875 59.4531 5.71875 58.6093C5.71875 58.4492 5.66406 58.2929 5.61719 58.1445C5.39844 58.0937 5.17578 58.125 4.95312 58.1054C4.82422 58.0507 4.80078 57.9023 4.74609 57.789ZM6.34766 58.1523C6.28906 58.6093 6.30469 59.0703 6.33984 59.5234C6.75781 59.5468 7.18359 59.5546 7.60547 59.5195C7.94531 59.4687 8.33203 59.246 8.33594 58.8593C8.39844 58.5078 8.13281 58.1601 7.77734 58.1289C7.30469 58.0781 6.82031 58.1054 6.34766 58.1523ZM6.37109 60.0703C6.30469 60.207 6.26172 60.3593 6.26562 60.5156C6.26562 60.9296 6.22266 61.3554 6.375 61.7539C6.98828 61.8828 7.69922 61.9687 8.24609 61.5937C8.57422 61.3593 8.55859 60.914 8.50391 60.5625C8.40234 60.2578 8.08594 60.0937 7.78516 60.0468C7.31641 60.0039 6.82031 59.8789 6.37109 60.0703Z" fill="black"/>
<path d="M46.0547 57.6094C46.3672 57.6758 46.6836 57.7109 46.9961 57.6172C47.0273 57.6445 47.0898 57.6953 47.1211 57.7227C47.1445 58.1875 47.1133 58.6562 47.1367 59.125C47.6133 58.6484 48.418 58.5977 48.9727 58.9648C49.2422 59.1406 49.3867 59.4531 49.4375 59.7617C49.4648 60.4336 49.4102 61.1094 49.4688 61.7773C49.6953 61.7812 49.9219 61.7812 50.1484 61.793C50.1484 61.9258 50.1445 62.0586 50.1367 62.1953C49.5039 62.207 48.8711 62.1953 48.2422 62.2031C48.2344 62.0625 48.2344 61.9219 48.2383 61.7812C48.4375 61.7773 48.6406 61.7852 48.8398 61.7852C48.9844 61.2891 48.8984 60.7656 48.9219 60.2578C48.9297 59.8711 48.8516 59.3711 48.4375 59.2188C48.0312 59.0977 47.4922 59.1836 47.2617 59.5742C47.0937 59.8594 47.1328 60.2031 47.1289 60.5234C47.1445 60.9453 47.082 61.375 47.2031 61.7852C47.4023 61.7813 47.6055 61.7773 47.8125 61.7812C47.8125 61.918 47.8125 62.0586 47.8125 62.1992C47.5859 62.2109 47.3594 62.2188 47.1406 62.1719C46.7695 62.0742 46.4063 62.2422 46.0352 62.2148C45.9961 62.1602 45.918 62.0547 45.8789 62C45.9063 61.9414 45.9688 61.832 46 61.7734C46.1914 61.7773 46.3867 61.7812 46.582 61.7812C46.6328 61.1914 46.5977 60.5938 46.6055 60C46.5977 59.3477 46.6328 58.6953 46.582 58.0469C46.3867 58.043 46.1953 58.0469 46.0078 58.0547C45.9727 57.9961 45.9062 57.8789 45.875 57.8242C45.918 57.7695 46.0078 57.6641 46.0547 57.6094Z" fill="black"/>
<path d="M21.9297 57.8243C22.0391 57.6407 22.2461 57.7618 22.4062 57.7852C22.418 58.1211 22.418 58.461 22.4141 58.7969C22.7656 58.8126 23.1211 58.793 23.4727 58.836C23.4688 58.9727 23.4648 59.1094 23.4609 59.2461C23.1133 59.2735 22.7656 59.2696 22.418 59.2774C22.4141 59.9493 22.4102 60.6251 22.4219 61.2969C22.4258 61.5157 22.582 61.7813 22.8281 61.7774C23.0625 61.8282 23.2852 61.6094 23.3008 61.3829C23.3594 61.1211 23.3672 60.8555 23.3828 60.5899C23.4336 60.5626 23.543 60.504 23.5937 60.4766C23.6484 60.504 23.7578 60.5586 23.8125 60.5899C23.8437 61.0508 23.875 61.5743 23.5586 61.9532C23.2891 62.2579 22.8438 62.2501 22.4727 62.1954C22.1367 62.0704 21.9375 61.7383 21.9141 61.3907C21.8906 60.6876 21.9219 59.9844 21.8984 59.2813C21.7187 59.2735 21.5391 59.2618 21.3633 59.2461C21.3594 59.1094 21.3594 58.9766 21.3633 58.8399C21.543 58.8204 21.7266 58.8008 21.9062 58.7696C21.9141 58.4532 21.8867 58.1368 21.9297 57.8243Z" fill="black"/>
<path d="M66.3164 57.8008C66.3711 57.7734 66.4883 57.7227 66.543 57.6992C66.5977 57.7227 66.7031 57.7734 66.7578 57.7969C66.7813 58.0938 66.7695 58.3984 66.7812 58.6992C66.8086 58.7266 66.8594 58.7773 66.8867 58.8047C67.2148 58.8203 67.5508 58.7813 67.8789 58.8633C67.875 58.9883 67.8711 59.1133 67.8672 59.2422C67.5234 59.2773 67.1758 59.2773 66.8281 59.2695C66.7266 59.8281 66.7969 60.3984 66.7773 60.9609C66.793 61.2187 66.7695 61.5625 67.0234 61.7109C67.2422 61.8828 67.6133 61.7383 67.668 61.4688C67.75 61.1758 67.7031 60.8594 67.7383 60.5586C67.8945 60.5508 68.0547 60.5508 68.2109 60.5625C68.25 60.957 68.2227 61.3672 68.0703 61.7383C67.7656 62.4492 66.457 62.4023 66.3281 61.5898C66.2617 60.8906 66.3242 60.1797 66.293 59.4766C66.2656 59.1992 65.9492 59.2812 65.7578 59.2461C65.7227 59.1953 65.6523 59.0977 65.6172 59.0469C65.6484 59 65.7148 58.8984 65.7461 58.8477C65.9297 58.8203 66.1133 58.793 66.2969 58.7617C66.293 58.4375 66.293 58.1172 66.3164 57.8008Z" fill="black"/>
<path d="M77.1719 58.0859C77.2578 57.9141 77.375 57.7656 77.5547 57.6914C77.6523 57.7305 77.75 57.7695 77.8516 57.8125C77.8906 57.9102 77.9297 58.0078 77.9727 58.1055C77.8984 58.2695 77.8047 58.5078 77.582 58.4766C77.3398 58.5156 77.2734 58.2461 77.1719 58.0859Z" fill="black"/>
<path d="M9.82031 60.0078C9.95703 59.0625 11.1367 58.3398 11.9961 58.8906C12.6133 59.1914 12.8711 59.918 12.7695 60.5703C11.9336 60.6055 11.0938 60.5742 10.2539 60.5859C10.2813 61.0742 10.4453 61.6523 10.9531 61.8437C11.2695 61.9062 11.6563 61.9336 11.9141 61.6992C12.1289 61.5156 12.2109 61.2305 12.3242 60.9805C12.4453 60.9883 12.5664 60.9961 12.6875 61.0039C12.8203 61.7109 12.1094 62.3516 11.4297 62.3164C11.0469 62.3398 10.6406 62.3086 10.3438 62.0391C9.73828 61.5703 9.69141 60.707 9.82031 60.0078ZM10.5938 59.5156C10.4375 59.6836 10.3906 59.9141 10.3203 60.125C10.9688 60.1367 11.6211 60.1445 12.2734 60.1211C12.1836 59.8203 12.1055 59.4531 11.793 59.3047C11.4102 59.0586 10.8789 59.1797 10.5938 59.5156Z" fill="black"/>
<path d="M13.6875 59.2226C14.2188 58.5742 15.3633 58.4961 15.8984 59.1836C16.1367 59.4961 16.0781 59.8984 16.0781 60.2617C16.082 60.7969 16.043 61.3359 16.0977 61.8711C16.2266 61.8711 16.3594 61.8789 16.4883 61.8633C16.5469 61.5547 16.5586 61.2383 16.6211 60.9297C16.7305 60.914 16.8399 60.914 16.9492 60.9258C16.957 61.2539 16.9727 61.582 16.9453 61.9101C16.7266 62.4648 15.8477 62.4375 15.5938 61.9258C15.3594 62.0898 15.125 62.3086 14.8242 62.3086C14.4336 62.3164 13.9961 62.375 13.6758 62.1015C13.293 61.8555 13.2617 61.3281 13.3867 60.9336C13.5391 60.5547 13.9531 60.4101 14.3203 60.3281C14.6602 60.2812 15.0195 60.3086 15.3399 60.1601C15.7149 59.957 15.5664 59.3281 15.1719 59.2383C14.8399 59.0859 14.4844 59.2305 14.1836 59.3789C14.2656 59.5859 14.2969 59.8086 14.2383 60.0234C14.0586 60.0586 13.8672 60.0742 13.6914 60.0195C13.4844 59.8008 13.5195 59.4531 13.6875 59.2226ZM14.3047 60.832C14.0781 60.875 13.8399 61.0508 13.8789 61.3086C13.8281 61.582 14.043 61.8633 14.3242 61.875C14.625 61.8906 14.9688 61.9101 15.2149 61.6953C15.5703 61.4297 15.5547 60.9375 15.5469 60.543C15.1602 60.7383 14.7227 60.7383 14.3047 60.832Z" fill="black"/>
<path d="M42.9453 59.5078C43.1641 59.086 43.5938 58.8164 44.043 58.7149C44.5039 58.625 44.9805 58.8242 45.2852 59.1719C45.5703 59.4688 45.5313 59.9649 45.3438 60.3047C45.1602 60.3125 44.9805 60.332 44.8008 60.3047C44.6797 60.2031 44.668 60.0469 44.6406 59.9024C44.7578 59.793 44.8789 59.6836 44.9961 59.5781C44.8086 59.3711 44.5781 59.1602 44.2813 59.1758C43.7422 59.1563 43.3203 59.6602 43.2774 60.168C43.2344 60.6719 43.2188 61.2578 43.5938 61.6524C43.836 61.9141 44.2188 61.9102 44.5469 61.8555C44.9414 61.6875 45.0508 61.2539 45.1836 60.8946C45.2774 60.8985 45.4688 60.9063 45.5625 60.9102C45.6524 61.4414 45.336 61.9766 44.8555 62.2031C44.5508 62.3672 44.1914 62.3164 43.8594 62.3047C43.4688 62.2305 43.1172 61.961 42.9336 61.6055C42.5899 60.961 42.6094 60.1524 42.9453 59.5078Z" fill="black"/>
<path d="M51.625 58.7265C52.1094 58.5898 52.6328 58.789 53.0039 59.1054C53.4414 59.5312 53.5898 60.1836 53.5352 60.7773C53.4688 61.3242 53.2148 61.9023 52.6992 62.1601C52.3672 62.3672 51.9609 62.3203 51.5859 62.3047C50.9883 62.1914 50.5313 61.6328 50.4609 61.039C50.3867 60.4648 50.4023 59.832 50.7383 59.3359C50.9336 59.0234 51.2891 58.8554 51.625 58.7265ZM51.543 59.2734C51.0703 59.5156 50.918 60.1093 50.9375 60.6054C50.9375 61.0898 51.125 61.6679 51.625 61.8476C51.9648 61.9257 52.3633 61.9023 52.625 61.6484C53.0586 61.1484 53.0977 60.3867 52.8711 59.7851C52.707 59.2578 52.0195 59.0195 51.543 59.2734Z" fill="black"/>
<path d="M55.3633 58.7265C56.0195 58.5742 56.7422 58.9335 57.0391 59.5312C57.2617 59.9101 57.2227 60.3671 57.2188 60.7851C57.2344 61.3398 56.9063 61.8788 56.4336 62.1562C56.0742 62.371 55.6367 62.332 55.2422 62.2929C54.668 62.1484 54.293 61.6093 54.1563 61.0624C53.957 60.5156 54.1445 59.9257 54.4024 59.4335C54.5899 59.0585 54.9883 58.8593 55.3633 58.7265ZM55.5195 59.1835C54.9453 59.2851 54.6524 59.8945 54.668 60.4296C54.6406 60.9023 54.7383 61.4453 55.1445 61.7421C55.375 61.9296 55.7031 61.8945 55.9805 61.8593C56.4297 61.7187 56.6914 61.2382 56.6875 60.7851C56.6914 60.3906 56.7461 59.9492 56.5039 59.6054C56.3047 59.2734 55.8906 59.1132 55.5195 59.1835Z" fill="black"/>
<path d="M80.1445 58.7383C80.6289 58.5938 81.1602 58.7617 81.5391 59.0781C81.9649 59.4609 82.125 60.0547 82.0859 60.6133C82.1055 61.2305 81.8047 61.8945 81.2344 62.1758C80.8945 62.375 80.4805 62.3164 80.1055 62.3008C79.5274 62.1641 79.1055 61.6133 79.0195 61.043C79.0039 60.5195 78.9258 59.9453 79.2227 59.4844C79.4063 59.1133 79.7695 58.875 80.1445 58.7383ZM80.2969 59.1992C79.7656 59.332 79.4922 59.918 79.5234 60.4336C79.4922 60.8906 79.5703 61.4102 79.9531 61.7109C80.1875 61.9414 80.543 61.8867 80.8399 61.8594C81.2031 61.7188 81.457 61.3711 81.5195 60.9961C81.5938 60.5547 81.5938 60.0742 81.3906 59.6719C81.1914 59.2813 80.7149 59.0938 80.2969 59.1992Z" fill="black"/>
<path d="M16.9531 58.9805C17.0859 58.8906 17.2227 58.7617 17.3984 58.8086C17.6758 58.8594 17.957 58.8164 18.2383 58.7969C18.3477 59.6328 18.1523 60.4844 18.3047 61.3164C18.3594 61.7148 18.7812 61.9492 19.1562 61.8828C19.5938 61.9258 19.9492 61.5195 19.9883 61.1133C20.0039 60.8555 19.9961 60.6016 20.0352 60.3477C20.1016 59.9844 19.9844 59.6289 19.9648 59.2695C19.7383 59.2617 19.5117 59.2617 19.2852 59.25C19.2852 59.0742 19.2852 58.7656 19.5391 58.8008C19.8633 58.8359 20.1875 58.8281 20.5117 58.793C20.5937 59.7891 20.4258 60.8008 20.6055 61.7891C20.8164 61.7891 21.0312 61.7852 21.2305 61.8594C21.2227 61.9492 21.207 62.1289 21.1992 62.2188C20.832 62.2148 20.4648 62.1992 20.0938 62.2266C20.0859 62.1445 20.0664 61.9844 20.0586 61.9062C19.8242 62.0938 19.5781 62.3203 19.2578 62.3086C18.8125 62.3437 18.2969 62.3203 17.9883 61.9531C17.6406 61.5234 17.7578 60.9414 17.7422 60.4336C17.7187 60.043 17.8047 59.6328 17.6445 59.2617C17.4219 59.2617 17.1992 59.2617 16.9805 59.2461C16.9687 59.1562 16.9609 59.0664 16.9531 58.9805Z" fill="black"/>
<path d="M24.0781 58.8047C24.4375 58.7812 24.8008 58.8828 25.1602 58.832C25.375 58.7969 25.5938 58.7929 25.8125 58.8125C25.8242 58.9609 25.832 59.1093 25.8359 59.2617C25.6523 59.2617 25.4648 59.2578 25.2813 59.2578C25.5195 60.0508 25.7773 60.8359 26.0508 61.6172C26.0742 61.6172 26.1289 61.625 26.1523 61.6289C26.4219 60.8398 26.7539 60.0703 26.9727 59.2656C26.7539 59.2578 26.5391 59.2617 26.3281 59.2539C26.332 59.1094 26.3398 58.9609 26.3516 58.8164C26.7383 58.7773 27.1211 58.8867 27.5078 58.8242C27.6992 58.8008 27.8906 58.7929 28.082 58.8125C28.0859 58.9609 28.0859 59.1094 28.082 59.2578C27.9102 59.2578 27.7422 59.2578 27.5703 59.2617C27.1406 60.2383 26.7852 61.25 26.375 62.2343C26.1406 62.789 25.7422 63.3398 25.1367 63.5117C24.8438 63.5547 24.5156 63.5781 24.2539 63.414C23.9922 63.2617 23.7344 62.957 23.8438 62.6367C23.9375 62.5 24.0625 62.3984 24.1875 62.2929C24.3242 62.3359 24.4609 62.3828 24.5977 62.4297C24.6055 62.6445 24.5859 62.8633 24.5703 63.0781C24.9766 63.1523 25.4102 62.9883 25.6094 62.6172C25.7969 62.3711 25.75 62.039 25.625 61.7773C25.2695 60.9453 24.9883 60.082 24.6211 59.2539C24.4023 59.2226 24.1172 59.3594 23.9688 59.1445C23.9961 59.0312 24.0313 58.914 24.0781 58.8047Z" fill="black"/>
<path d="M40.0313 58.8789C40.4609 58.6523 40.9492 58.7461 41.3984 58.8477C41.5469 58.7539 41.7109 58.7109 41.8867 58.7148C41.8867 59.1445 41.9023 59.5781 41.8867 60.0078C41.8164 60.1914 41.5977 60.1406 41.4883 60.0195C41.4609 59.8711 41.4648 59.7227 41.4414 59.5742C41.1406 59.1016 40.2969 59.0234 40.0078 59.543C39.9453 59.7461 39.9375 60.0273 40.168 60.1289C40.707 60.3672 41.3633 60.2461 41.8516 60.6172C42.0742 60.8398 42.2227 61.1914 42.0938 61.4961C41.9883 61.9375 41.5781 62.2383 41.1484 62.3203C40.6914 62.4453 40.2148 62.3125 39.8086 62.1055C39.7773 62.2031 39.7461 62.3008 39.7148 62.3984C39.6289 62.3984 39.4609 62.3945 39.375 62.3945C39.2383 62.0742 39.4063 61.7422 39.3594 61.4141C39.332 61.2188 39.332 61.0195 39.3711 60.8281C39.457 60.832 39.6289 60.8359 39.7109 60.8398C39.75 61.082 39.7617 61.3281 39.8438 61.5625C40.1563 61.875 40.6367 61.9414 41.0625 61.8828C41.2305 61.8672 41.3555 61.7422 41.4648 61.6211C41.6055 61.4805 41.5273 61.2617 41.5469 61.082C41.0859 60.668 40.4219 60.8398 39.8984 60.5703C39.6328 60.4609 39.4141 60.207 39.4414 59.9062C39.3711 59.4727 39.6289 59.0391 40.0313 58.8789Z" fill="black"/>
<path d="M62.9141 59.1523C63.2891 58.7422 63.9062 58.6484 64.4219 58.8086C64.6641 58.918 64.8711 58.7109 65.1094 58.6875C65.1289 59.1602 65.1289 59.6367 65.1133 60.1094C65.0039 60.1133 64.8945 60.1172 64.7852 60.125C64.7383 59.9023 64.6914 59.6836 64.6523 59.4609C64.4023 59.3281 64.1445 59.1406 63.8438 59.1875C63.5586 59.2109 63.2773 59.4023 63.2031 59.6875C63.168 59.8828 63.2891 60.0977 63.4805 60.1602C63.9961 60.3398 64.6016 60.2695 65.0625 60.6016C65.5586 60.9805 65.4102 61.8164 64.9062 62.1172C64.3477 62.4727 63.6172 62.418 63.0508 62.1094C63.0195 62.207 62.9883 62.3086 62.9609 62.4062C62.832 62.3984 62.7031 62.3867 62.5781 62.375C62.5547 61.8711 62.582 61.3633 62.5664 60.8555C62.6875 60.8398 62.8047 60.8281 62.9258 60.8125C63.0117 61.0664 62.9727 61.3633 63.1328 61.5898C63.418 61.8828 63.8594 61.9258 64.2422 61.8906C64.5352 61.8711 64.8477 61.6328 64.7852 61.3086C64.832 61.0703 64.625 60.9141 64.4219 60.8555C63.9531 60.7187 63.4258 60.7773 63.0078 60.4883C62.5586 60.2031 62.5625 59.5117 62.9141 59.1523Z" fill="black"/>
<path d="M68.3867 58.8086C68.7695 58.8125 69.1523 58.8398 69.5391 58.8008C69.5859 59.5742 69.5078 60.3477 69.5547 61.1211C69.5898 61.3437 69.6523 61.5898 69.8398 61.7344C70.0703 61.9336 70.3984 61.8828 70.6797 61.8633C71.0195 61.75 71.2656 61.4023 71.2773 61.043C71.3008 60.4531 71.3164 59.8594 71.2578 59.2734C71.0234 59.2305 70.7227 59.3594 70.5547 59.1445C70.5859 59.0273 70.625 58.9141 70.6719 58.8008C71.043 58.8164 71.4141 58.8477 71.7891 58.793C71.8477 59.3398 71.793 59.8867 71.8086 60.4336C71.8242 60.8867 71.7539 61.3555 71.8984 61.793C72.0937 61.793 72.293 61.793 72.4922 61.793C72.5 61.9336 72.5 62.0742 72.4961 62.2148C72.125 62.2187 71.75 62.1992 71.3789 62.2266C71.3711 62.1484 71.3516 61.9922 71.3398 61.9102C71.1445 62.0586 70.9492 62.2266 70.707 62.293C70.2344 62.3359 69.6797 62.375 69.3203 62C68.9492 61.6016 69.0312 61.0195 69.0273 60.5234C69.0078 60.1016 69.0898 59.6641 68.9375 59.2617C68.7266 59.2617 68.5156 59.2617 68.3047 59.25C68.3203 59.1016 68.3437 58.9531 68.3867 58.8086Z" fill="black"/>
<path d="M76.8438 58.8242C77.1875 58.8555 77.5352 58.8633 77.875 58.8242C78.0234 59.8086 77.8945 60.8047 77.9609 61.793C78.1641 61.8242 78.3711 61.8516 78.5742 61.8789C78.5703 61.9883 78.5703 62.1016 78.5664 62.2148C77.9648 62.2305 77.3633 62.2188 76.7656 62.2188C76.7656 62.082 76.7734 61.9414 76.7773 61.8047C76.9727 61.8047 77.168 61.8086 77.3672 61.8086C77.4961 61.3906 77.4258 60.9492 77.4453 60.5234C77.4258 60.1016 77.5 59.6641 77.3594 59.2578C77.1562 59.2617 76.9531 59.2578 76.75 59.25C76.7734 59.1094 76.8086 58.9648 76.8438 58.8242Z" fill="black"/>
</svg>
